<svg height="512pt" viewBox="0 0 512 512" width="512pt" xmlns="http://www.w3.org/2000/svg">
    <path d="m253.121094 472.570312c-.652344 0-1.320313.070313-1.972656.199219-2.617188.519531-4.867188 2.039063-6.359376 4.261719-1.480468 2.21875-2 4.890625-1.480468 7.507812.929687 4.660157 5.050781 8.042969 9.792968 8.042969h.019532c.648437 0 1.308594-.070312 1.957031-.199219 5.402344-1.082031 8.921875-6.363281 7.84375-11.773437-.933594-4.660156-5.050781-8.039063-9.800781-8.039063zm0 0"/>
    <path d="m504.644531 40.355469s-146-40-146-40c-.769531-.210938-1.09375-.355469-2.371093-.355469-1.273438 0-1.503907.0429688-2.234376.191406l-197.6875 39.535156-143.707031-39.371093c-3.011719-.824219-6.230469-.199219-8.710937 1.695312-2.480469 1.890625-3.933594 4.832031-3.933594 7.949219v452c0 4.503906 3.011719 8.453125 7.355469 9.644531 0 0 146.035156 40.007813 146.050781 40.011719.835938.21875 1.714844.34375 2.59375.34375.636719 0 1.296875-.054688 1.921875-.195312.011719 0 53.027344-10.59375 53.027344-10.59375 5.410156-1.089844 8.917969-6.359376 7.839843-11.773438-.929687-4.65625-5.039062-8.039062-9.789062-8.039062-.660156 0-1.320312.070312-1.972656.199218l-41.027344 8.203125v-54.511719c11.382812-.109374 24.285156-2.875 37.921875-10.582031 20.71875-11.710937 33.054687-23.148437 42.972656-32.34375 12.472657-11.558593 18.730469-17.363281 33.105469-17.363281 23.222656 0 36.640625-11.414062 45.523438-18.96875 2.652343-2.253906 7.09375-6.03125 8.476562-6.03125 2.390625 0 7.144531 2.207031 12 4.738281v99.0625l-50.71875 10.148438c-2.621094.519531-4.882812 2.03125-6.359375 4.25-1.480469 2.230469-2.011719 4.890625-1.480469 7.511719.929688 4.660156 5.046875 8.039062 9.789063 8.039062.660156 0 1.320312-.0625 1.980469-.199219l56.417968-11.285156 143.726563 39.378906c.871093.238281 1.761719.355469 2.644531.355469 5.367188 0 10-4.53125 10-10v-452c0-4.503906-3.011719-8.453125-7.355469-9.644531zm-103.714843 162.714843c.550781.550782 1.160156 1.15625 1.820312 1.808594 12.921875 12.792969 47.25 46.769532 47.25 95.121094 0 20.003906-7.574219 33.855469-23.160156 42.34375-14.34375 7.8125-31.238282 8.65625-37.839844 8.65625-6.554688 0-14.980469-3.980469-23-8.234375v-196.765625c12.527344 5.355469 19.109375 10.289062 20.996094 12.476562-.003906.273438-.003906.546876-.007813.824219-.070312 11.808594-.179687 29.652344 13.941407 43.769531zm-54.929688-84.570312c-4.164062-.929688-8.183594-1.613281-11.960938-2.027344-3.390624-8.144531-10.96875-15.316406-21.171874-19.539062-13.824219-5.730469-34.035157-6.332032-50.859376 8.136718-25.949218.945313-43.527343 11.152344-48.539062 27.671876-4.484375-.25-9.136719-.644532-13.949219-1.054688-9.320312-.789062-19.882812-1.6875-31.519531-1.6875-.683594 0-1.347656.027344-2 .070312v-71.871093l180-36zm-257.390625 104.535156c-1.066406-14.804687-2.394531-33.230468 2.894531-41.769531 2.480469-4.011719 5.078125-5.738281 9.351563-5.738281 3.429687 0 25.566406 6.476562 31.144531 6.476562 5.992188 0 10.449219-2.53125 14-6.089844v235.929688c-4.09375-1.46875-7.382812-3.148438-9.65625-4.472656-12.652344-7.382813-18.34375-16.941406-18.34375-21.371094 0-22.96875-17.5-41.796875-31.558594-56.925781-7.773437-8.359375-17.460937-24.761719-17.496094-25.101563-.023437-.242187-2.320312-24.457031 14.125-40.902344 7.855469-7.851562 6.832032-22.054687 5.539063-40.035156zm-68.609375-199.925781 126 34.519531v82.84375c-3.722656 4.238282-12.886719 20.386719-14.367188 21.519532-2.625-.109376-6.691406-1.34375-10.625-2.542969-12.441406-3.785157-33.261718-10.113281-46.511718 11.289062-8.691406 14.046875-7.175782 35.132813-5.835938 53.734375.613282 8.523438 1.535156 21.328125-.027344 24.753906-21.460937 21.75-19.988281 51.726563-19.625 56.265626.253907 12.960937 10.707032 24.207031 22.785157 37.203124 12.28125 13.214844 26.207031 28.195313 26.207031 43.304688 0 13.457031 11.09375 28.625 28.261719 38.644531 4.230469 2.464844 11.050781 5.835938 19.738281 8.121094v56.125l-126-34.519531zm292.566406 317.6875c-8.210937 6.984375-16.699218 14.203125-32.566406 14.203125-22.21875 0-33.566406 10.519531-46.703125 22.699219-9.625 8.921875-20.535156 19.035156-39.21875 29.59375-10.105469 5.714843-19.65625 7.800781-28.078125 7.925781v-264.972656c.632812-.160156 1.296875-.246094 2-.246094 10.789062 0 46.117188 3 54 3 5.523438 0 10-4.476562 10-10 0-16.703125 26.023438-18 34-18 2.652344 0 5.195312-1.054688 7.070312-2.929688 13.105469-13.105468 27.917969-8.414062 32.144532-6.660156 7.003906 2.902344 10.785156 7.621094 10.785156 10.589844 0 5.523438 4.476562 10 10 10 5.441406 0 12.453125 1.117188 20 3.105469v193.550781c-4.136719-1.632812-8.101562-2.65625-12-2.65625-8.738281 0-15.191406 5.488281-21.433594 10.796875zm179.433594 148.09375-126-34.519531v-89.28125c7.445312 3.367187 15.21875 5.910156 23 5.910156 10.101562 0 29.6875-1.441406 47.410156-11.09375 15.324219-8.347656 33.589844-25.515625 33.589844-59.90625 0-56.695312-38.636719-94.9375-53.179688-109.335938-.636718-.628906-1.21875-1.207031-1.75-1.734374-8.210937-8.210938-8.140624-19.523438-8.082031-29.503907.007813-.832031.011719-1.640625.011719-2.425781 0-3.667969 0-14.832031-31.726562-28.777344-3.070313-1.351562-6.171876-2.601562-9.273438-3.75v-101.363281l126 34.519531zm0 0"/>
    <path d="m389.210938 328.140625c3.617187 3.558594 9.585937 3.113281 14.277343 2.703125 5.699219-.496094 11.261719-2.675781 15.722657-6.269531 7.597656-6.113281 10.789062-15.070313 10.789062-24.574219 0-6.511719-.789062-13.089844-2.351562-19.570312-1.253907-5.21875-6.820313-8.617188-12.058594-7.390626-5.359375 1.289063-8.667969 6.699219-7.378906 12.070313 1.1875 4.941406 1.789062 9.949219 1.789062 14.890625-.011719 3.089844-.488281 5.488281-1.421875 7.121094-.46875.796875-.929687 1.296875-1.695313 1.828125-4.410156 3.039062-10.285156.972656-15.023437 3.074219-6.265625 2.785156-7.402344 11.441406-2.648437 16.117187zm0 0"/>
    <path d="m397.3125 253.113281c2.226562.011719 4.460938-.695312 6.265625-2.152343 4.203125-3.394532 4.890625-9.878907 1.511719-14.0625-3.417969-4.230469-9.824219-4.90625-14.058594-1.507813-4.292969 3.46875-4.972656 9.769531-1.511719 14.070313 1.925781 2.390624 4.851563 3.644531 7.792969 3.652343zm0 0"/>
    <path d="m104.28125 294.214844c2.566406.003906 5.148438-.933594 7.074219-2.859375 4.847656-4.847657 11.09375-12.78125 14.117187-19.578125 2.246094-5.046875-.027344-10.957032-5.070312-13.199219-5.046875-2.246094-10.957032.023437-13.203125 5.070313-1.605469 3.613281-5.996094 9.574218-9.984375 13.566406-3.90625 3.902344-3.90625 10.234375 0 14.140625 1.878906 1.882812 4.46875 2.855469 7.066406 2.859375zm0 0"/>
    <path d="m198.84375 354.984375c-2.683594 2.367187-5.492188 4.722656-8.636719 7.117187-4.375 3.332032-5.492187 9.832032-2.164062 14.210938 1.96875 2.585938 4.949219 3.945312 7.964843 3.945312 2.105469 0 4.226563-.660156 6.035157-2.03125 3.726562-2.824218 7.023437-5.589843 10.097656-8.300781 4.203125-3.710937 4.5-10.164062.6875-14.273437-3.699219-3.996094-9.898437-4.273438-13.984375-.667969zm0 0"/>
    <path d="m413.441406 79.449219 38.558594 9.40625v54.144531c0 5.523438 4.476562 10 10 10s10-4.476562 10-10v-62c0-4.609375-3.152344-8.621094-7.628906-9.714844l-46.1875-11.265625c-5.371094-1.308593-10.777344 1.980469-12.085938 7.347657-1.308594 5.363281 1.980469 10.773437 7.34375 12.082031zm0 0"/>
    <path d="m256 171c-38.597656 0-70 31.402344-70 70 0 36.386719 56.660156 91.136719 63.121094 97.257812 1.929687 1.828126 4.402344 2.742188 6.878906 2.742188s4.949219-.914062 6.878906-2.742188c6.460938-6.121093 63.121094-60.871093 63.121094-97.257812 0-38.597656-31.402344-70-70-70zm0 145.980469c-21.691406-22.019531-50-57.085938-50-75.980469 0-27.570312 22.429688-50 50-50s50 22.429688 50 50c0 18.894531-28.308594 53.964844-50 75.980469zm0 0"/>
    <path d="m256 211c-16.542969 0-30 13.457031-30 30s13.457031 30 30 30 30-13.457031 30-30-13.457031-30-30-30zm0 40c-5.515625 0-10-4.484375-10-10s4.484375-10 10-10 10 4.484375 10 10-4.484375 10-10 10zm0 0"/>
</svg>