<svg height="512pt" viewBox="0 -19 512 512" width="512pt" xmlns="http://www.w3.org/2000/svg">
    <path d="m277.953125 266.078125h-43.90625c-5.523437 0-10-4.476563-10-10v-52.492187h-25.976563c-5.519531 0-10-4.480469-10-10v-43.882813c0-5.523437 4.480469-10 10-10h25.976563v-28.21875c0-5.523437 4.476563-10 10-10h43.90625c5.523437 0 10 4.476563 10 10v28.21875h25.976563c5.523437 0 10 4.476563 10 10v43.882813c0 5.519531-4.476563 10-10 10h-25.976563v52.492187c0 5.523437-4.476563 10-10 10zm-33.90625-20h23.90625v-52.492187c0-5.523438 4.476563-10 10-10h25.976563v-23.882813h-25.976563c-5.523437 0-10-4.476563-10-10v-28.21875h-23.90625v28.21875c0 5.523437-4.476563 10-10 10h-25.976563v23.882813h25.976563c5.523437 0 10 4.476562 10 10zm0 0"/>
    <path d="m313.5 353.175781c-.648438 0-1.308594-.0625-1.960938-.191406-.640624-.128906-1.269531-.320313-1.867187-.570313-.601563-.25-1.183594-.558593-1.730469-.917968-.542968-.371094-1.050781-.792969-1.519531-1.25-.460937-.460938-.871094-.972656-1.242187-1.519532-.359376-.542968-.667969-1.121093-.917969-1.722656-.25-.609375-.441407-1.230468-.570313-1.867187-.132812-.652344-.191406-1.3125-.191406-1.960938 0-.652343.058594-1.3125.191406-1.949219.128906-.640624.320313-1.273437.570313-1.871093.25-.609375.558593-1.191407.917969-1.730469.371093-.550781.78125-1.058594 1.242187-1.519531 2.328125-2.320313 5.777344-3.390625 9.027344-2.730469.640625.132812 1.269531.320312 1.871093.570312.601563.25 1.179688.5625 1.730469.917969.539063.363281 1.058594.78125 1.519531 1.242188.460938.460937.878907.96875 1.238282 1.519531.363281.539062.671875 1.121094.921875 1.730469.25.597656.441406 1.230469.570312 1.871093.128907.636719.199219 1.296876.199219 1.949219 0 .648438-.070312 1.308594-.199219 1.960938-.128906.636719-.320312 1.257812-.570312 1.867187-.25.601563-.558594 1.179688-.921875 1.722656-.359375.546876-.777344 1.058594-1.238282 1.519532-.460937.457031-.980468.878906-1.519531 1.25-.550781.359375-1.128906.667968-1.730469.917968-.601562.25-1.230468.441407-1.871093.570313-.640625.132813-1.300781.191406-1.949219.191406zm0 0"/>
    <path d="m508.171875 421.5625c-5.992187-23.183594-18.675781-43.902344-36.671875-59.90625-16.402344-14.585938-36.179688-24.3125-57.550781-28.359375v-175.429687c0-87.050782-70.855469-157.867188-157.949219-157.867188s-157.949219 70.816406-157.949219 157.867188v198.601562c-.367187-.003906-.734375.015625-1.101562.050781-38.238281 3.992188-71.777344 28.304688-87.527344 63.457031-6.253906 13.945313-9.421875 28.824219-9.421875 44.214844 0 5.523438 4.476562 10 10 10h491.292969c5.09375 0 9.375-3.828125 9.9375-8.890625.511719-4.578125.769531-9.117187.769531-13.488281 0-10.238281-1.289062-20.417969-3.828125-30.25zm-23.507813-7.496094h-38.742187v-34.285156c0-5.519531-4.480469-10-10-10h-21.972656v-16.039062c31.773437 7.371093 58.4375 30.214843 70.714843 60.324218zm-398.585937 0v-24.285156h339.84375v24.285156zm71.453125-60.886718h116.597656c5.523438 0 10-4.476563 10-10 0-5.523438-4.476562-10-10-10h-116.597656v-175.25c0-54.296876 44.171875-98.46875 98.46875-98.46875s98.46875 44.171874 98.46875 98.46875v211.851562h-196.9375zm-39.480469-195.3125c0-76.019532 61.882813-137.867188 137.949219-137.867188s137.949219 61.847656 137.949219 137.867188v211.914062h-19.480469v-211.851562c0-65.324219-53.144531-118.46875-118.46875-118.46875-65.320312 0-118.46875 53.140624-118.46875 118.46875v211.851562h-19.480469zm-51.972656 228.824218v27.375h-30.460937c7.910156-11.429687 18.390624-20.789062 30.460937-27.375zm425.890625 67.5h-471.414062c.773437-6.890625 2.351562-13.621094 4.71875-20.125h465.164062c1.039062 5.832032 1.5625 11.773438 1.5625 17.746094 0 .789062-.011719 1.582031-.03125 2.378906zm0 0"/>
</svg>