<svg xmlns="http://www.w3.org/2000/svg" width="460" height="550"><circle cx="105" cy="112" r="8.6"/><circle cx="182" cy="95" r="8.6"/><path d="M412.7 39.522c10.872 16.794 18.063 35.141 3 55-13.565-4.295-18.154-20.093-21-38l-26 47c16.31-7.443 31.082-15.262 42-1.522-16.575 22.95-62.557 49.67-76.406 11.272a22.436 22.436 0 0 0 3.219-7.406c1.362-5.795.396-11.507-2.25-15.75 11.794-30.673 27.828-20.376 36.906-5.719.546-16.316 2.55-38.864-32.094-17.406 7.512-17.968 4.772-48.205 1.656-48.938-3.117-.732-19.065 25.129-20.344 44.563-21.458-34.644-29.721-13.57-36.5 1.281 14.657-9.078 33.636-11.153 30.531 21.563-4.259 2.62-7.7 7.298-9.063 13.094-.644 2.739-.77 5.448-.438 8C266.7 120 256.7 110 236.7 70V52.506c2-.506 2-1.506 2.5-3.5 19.124-.11 25.949 11.557 33.5 23.516v-53c-7.44 13.603-16.032 23.333-33.5 22.484-.5-2.006-.5-3.006-2.5-3.5 2.71-18.246 10.181-26.241 28-34.984L231 3.506h-.3l-33.7.016c17.819 8.744 25.29 16.738 28 34.984-2 .494-2 1.494-2.5 3.5-17.468.849-26.061-8.881-33.5-22.484v53c7.55-11.959 14.376-23.625 33.5-23.516.5 1.994.5 2.994 2.5 3.5V70c-20 40-30 50-69.219 36.553.332-2.552.206-5.261-.438-8-1.362-5.795-4.803-10.474-9.063-13.094-3.105-32.715 15.874-30.641 30.531-21.563-6.78-14.851-15.042-35.925-36.5-1.281-1.279-19.433-17.227-45.295-20.344-44.563-3.117.733-5.856 30.97 1.656 48.938-34.644-21.458-32.64 1.09-32.094 17.406 9.079-14.657 25.112-24.954 36.906 5.719-2.646 4.243-3.612 9.955-2.25 15.75a22.395 22.395 0 0 0 3.219 7.406C113.557 151.67 67.575 124.95 51 102c10.918-13.74 25.69-5.921 42 1.522l-26-47c-2.846 17.907-7.435 33.705-21 38-15.063-19.859-7.873-38.206 3-55l-35 20 67 115c43.636-28.458 96.889-41.869 149.7-41.018v.002l.149-.001.15.001v-.002c52.811-.851 106.065 12.56 149.7 41.018l67-115-34.999-20z"/><circle cx="356.7" cy="112" r="8.6"/><circle cx="279.7" cy="95" r="8.6"/><path d="M231 166.522H73v351h17s25-66 25-71c0-1.392-2-2-8-2v-35.001h35v37.001h-8l26 67 26-67h-8v-37.001h35v37.001h-8l25.7 66.228v.772l.149-.387.15.387v-.772l25.7-66.228h-8v-37.001h35v37.001h-8l26 67 26-67h-8v-37.001h35v35.001c-6 0-8 .608-8 2 0 5 25 71 25 71h17v-351H231zM90 400.521c-4.968 0-9-4.031-9-9 0-4.967 4.032-9 9-9s9 4.033 9 9c0 4.969-4.032 9-9 9zm0-71c-4.968 0-9-4.031-9-9 0-4.967 4.032-9 9-9s9 4.033 9 9c0 4.969-4.032 9-9 9zm0-68.999c-4.968 0-9-4.032-9-9s4.032-9 9-9 9 4.032 9 9-4.032 9-9 9zm0-67c-4.968 0-9-4.032-9-9s4.032-9 9-9 9 4.032 9 9-4.032 9-9 9zm52 179.999h-35v-35h35v35zm0-71h-35v-32h35v32zm0-67.999h-35v-32h35v32zm18 165.999c-4.968 0-9-4.031-9-9 0-4.967 4.032-9 9-9s9 4.033 9 9c0 4.969-4.032 9-9 9zm0-71c-4.968 0-9-4.031-9-9 0-4.967 4.032-9 9-9s9 4.033 9 9c0 4.969-4.032 9-9 9zm0-68.999c-4.968 0-9-4.032-9-9s4.032-9 9-9 9 4.032 9 9-4.032 9-9 9zm0-67c-4.968 0-9-4.032-9-9s4.032-9 9-9 9 4.032 9 9-4.032 9-9 9zm53 179.999h-35v-35h35v35zm0-71h-35v-32h35v32zm0-67.999h-35v-32h35v32zm17.85 165.992c-4.897-.081-8.85-4.074-8.85-8.992 0-4.916 3.952-8.911 8.85-8.992 4.898.081 8.851 4.076 8.851 8.992-.001 4.917-3.953 8.911-8.851 8.992zm0-71c-4.897-.081-8.85-4.074-8.85-8.992 0-4.916 3.952-8.911 8.85-8.992 4.898.081 8.851 4.076 8.851 8.992-.001 4.917-3.953 8.911-8.851 8.992zm0-68.999c-4.897-.081-8.85-4.075-8.85-8.993 0-4.917 3.952-8.912 8.85-8.993 4.898.081 8.851 4.076 8.851 8.993-.001 4.917-3.953 8.912-8.851 8.993zm0-67c-4.897-.081-8.85-4.075-8.85-8.993 0-4.917 3.952-8.912 8.85-8.993 4.898.081 8.851 4.076 8.851 8.993-.001 4.917-3.953 8.912-8.851 8.993zm52.85 180.006h-35v-35h35v35zm0-71h-35v-32h35v32zm0-67.999h-35v-32h35v32zm18 165.999c-4.968 0-9-4.031-9-9 0-4.967 4.032-9 9-9s9 4.033 9 9c0 4.969-4.032 9-9 9zm0-71c-4.968 0-9-4.031-9-9 0-4.967 4.032-9 9-9s9 4.033 9 9c0 4.969-4.032 9-9 9zm0-68.999c-4.968 0-9-4.032-9-9s4.032-9 9-9 9 4.032 9 9-4.032 9-9 9zm0-67c-4.968 0-9-4.032-9-9s4.032-9 9-9 9 4.032 9 9-4.032 9-9 9zm53 179.999h-35v-35h35v35zm0-71h-35v-32h35v32zm0-67.999h-35v-32h35v32zm17 165.999c-4.968 0-9-4.031-9-9 0-4.967 4.032-9 9-9s9 4.033 9 9c0 4.969-4.032 9-9 9zm0-71c-4.968 0-9-4.031-9-9 0-4.967 4.032-9 9-9s9 4.033 9 9c0 4.969-4.032 9-9 9zm0-68.999c-4.968 0-9-4.032-9-9s4.032-9 9-9 9 4.032 9 9-4.032 9-9 9zm0-67c-4.968 0-9-4.032-9-9s4.032-9 9-9 9 4.032 9 9-4.032 9-9 9z"/><g fill="none" stroke="#000" stroke-width="5.7"><path stroke-miterlimit="10" d="M432.2 207.496c-.051 0-.1.004-.15.004-13.53 0-24.5-10.969-24.5-24.5"/><path stroke-miterlimit="10" d="M432.2 207.496c13.462-.081 24.35-11.015 24.35-24.496 0-13.531-10.969-24.5-24.5-24.5-13.53 0-24.5 10.969-24.5 24.5"/><path d="M421.7 183h-14.15M407.55 183H388.2"/><path stroke-miterlimit="10" d="M432.2 233.5H418a6.2 6.2 0 0 0-6.2 6.2v40.6a6.2 6.2 0 0 0 6.2 6.2h14.2M432.2 286.5h14.4c3.425 0 6.2-2.775 6.2-6.2v-40.6a6.2 6.2 0 0 0-6.2-6.2h-14.4"/><path d="M432.2 233.5v7.5M432.2 233.5v-26.004M432.2 207.496V200"/><path stroke-miterlimit="10" d="M432.2 367.9H418a6.2 6.2 0 0 1-6.2-6.2v-40.6a6.2 6.2 0 0 1 6.2-6.199h14.2M432.2 367.9h14.4a6.2 6.2 0 0 0 6.2-6.2v-40.6a6.199 6.199 0 0 0-6.2-6.199h-14.4"/><path d="M432.2 286.5v-5.1M432.2 286.5v28.4M432.2 322.4v-7.5"/><path stroke-miterlimit="10" d="M432.2 395.8H418a6.2 6.2 0 0 0-6.2 6.2v40.6a6.2 6.2 0 0 0 6.2 6.2h14.2M432.2 395.8h14.4a6.2 6.2 0 0 1 6.2 6.2v40.6c0 3.425-2.775 6.2-6.2 6.2h-14.4"/><path d="M432.2 395.8v7.5M432.2 395.8v-27.9M432.2 367.9v-5.6"/><path stroke-miterlimit="10" d="M432.2 473.504c-.051 0-.1-.004-.15-.004-13.53 0-24.5 10.969-24.5 24.5s10.97 24.5 24.5 24.5c13.531 0 24.5-10.969 24.5-24.5 0-13.48-10.888-24.415-24.35-24.496"/><path d="M432.2 442v6.8M432.2 473.504V483M432.2 473.504V448.8M29.65 158.5c-13.531 0-24.5 10.969-24.5 24.5 0 13.481 10.889 24.415 24.35 24.496.05 0 .1.004.15.004 13.531 0 24.5-10.969 24.5-24.5s-10.969-24.5-24.5-24.5zM54.15 183H40M73.5 183H54.15M43.7 233.5H15.1a6.2 6.2 0 0 0-6.2 6.2v40.6a6.2 6.2 0 0 0 6.2 6.2h28.6a6.2 6.2 0 0 0 6.2-6.2v-40.6a6.2 6.2 0 0 0-6.2-6.2zM29.5 207.496V200M29.5 207.496V233.5M29.5 241v-7.5M43.7 314.9H15.1a6.2 6.2 0 0 0-6.2 6.199V361.7a6.2 6.2 0 0 0 6.2 6.2h28.6a6.2 6.2 0 0 0 6.2-6.2v-40.6a6.2 6.2 0 0 0-6.2-6.2zM29.5 286.5v28.4M29.5 314.9v7.5M29.5 286.5v-5.1M29.5 448.8h14.2a6.2 6.2 0 0 0 6.2-6.2V402a6.2 6.2 0 0 0-6.2-6.2H29.5M29.5 395.8H15.1a6.2 6.2 0 0 0-6.2 6.2v40.6a6.2 6.2 0 0 0 6.2 6.2h14.4M29.5 362.3v5.6M29.5 395.8v-27.9M29.5 395.8v7.5M29.5 473.504C16.039 473.585 5.15 484.52 5.15 498c0 13.531 10.969 24.5 24.5 24.5s24.5-10.969 24.5-24.5-10.969-24.5-24.5-24.5c-.05 0-.1.004-.15.004M29.5 448.8v24.704M29.5 448.8V442M29.5 473.504V483"/></g></svg>