<?xml version="1.0" encoding="UTF-8" standalone="no"?>
<!-- Created with Inkscape (http://www.inkscape.org/) -->

<svg
   xmlns:dc="http://purl.org/dc/elements/1.1/"
   xmlns:cc="http://creativecommons.org/ns#"
   xmlns:rdf="http://www.w3.org/1999/02/22-rdf-syntax-ns#"
   xmlns:svg="http://www.w3.org/2000/svg"
   xmlns="http://www.w3.org/2000/svg"
   xmlns:sodipodi="http://sodipodi.sourceforge.net/DTD/sodipodi-0.dtd"
   xmlns:inkscape="http://www.inkscape.org/namespaces/inkscape"
   width="885.82672"
   height="531.49603"
   id="svg3018"
   version="1.1"
   inkscape:version="0.48.4 r9939"
   sodipodi:docname="West Riding Flag.svg">
  <sodipodi:namedview
     inkscape:document-units="mm"
     pagecolor="#ffffff"
     bordercolor="#666666"
     borderopacity="1.0"
     inkscape:pageopacity="0.0"
     inkscape:pageshadow="2"
     inkscape:zoom="0.86831673"
     inkscape:cx="29.133404"
     inkscape:cy="193.0803"
     inkscape:current-layer="layer1"
     id="namedview3022"
     showgrid="false"
     inkscape:window-width="1920"
     inkscape:window-height="1005"
     inkscape:window-x="-9"
     inkscape:window-y="-9"
     inkscape:window-maximized="1"
     units="mm"
     fit-margin-top="0"
     fit-margin-left="0"
     fit-margin-right="0"
     fit-margin-bottom="0"
     showguides="true"
     inkscape:guide-bbox="true">
    <inkscape:grid
       spacingy="0.5mm"
       spacingx="0.5mm"
       units="mm"
       snapvisiblegridlinesonly="true"
       enabled="true"
       visible="true"
       empspacing="5"
       id="grid24613"
       type="xygrid" />
  </sodipodi:namedview>
  <defs
     id="defs3020">
    <filter
       id="filter5728"
       inkscape:collect="always"
       color-interpolation-filters="sRGB">
      <feGaussianBlur
         id="feGaussianBlur5730"
         stdDeviation="3.2896318"
         inkscape:collect="always" />
    </filter>
  </defs>
  <metadata
     id="metadata3024">
    <rdf:RDF>
      <cc:Work
         rdf:about="">
        <dc:format>image/svg+xml</dc:format>
        <dc:type
           rdf:resource="http://purl.org/dc/dcmitype/StillImage" />
        <dc:title />
      </cc:Work>
    </rdf:RDF>
  </metadata>
  <g
     transform="translate(0,-212.59843)"
     id="layer1"
     inkscape:groupmode="layer"
     inkscape:label="Layer 1">
    <rect
       style="fill:#ffffff;fill-opacity:1;stroke:none;stroke-width:1.41732287000000000;stroke-linecap:round;stroke-linejoin:round;stroke-miterlimit:4;stroke-opacity:1;stroke-dasharray:none;stroke-dashoffset:0"
       id="rect4284"
       width="885.82678"
       height="531.49603"
       x="0"
       y="-3.0277282e-005"
       transform="translate(0,212.59843)" />
    <rect
       y="-3.0277282e-005"
       x="253.34645"
       height="531.49603"
       width="131.10237"
       id="rect24615"
       style="fill:#ce1126;fill-opacity:1;stroke:none"
       transform="translate(0,212.59843)" />
    <rect
       transform="translate(0,212.59843)"
       y="200.19682"
       x="0"
       height="131.10236"
       width="885.82678"
       id="rect24619"
       style="fill:#d30214;fill-opacity:1;stroke:none" />
    <g
       style="fill:#ffcf14;fill-opacity:1"
       id="g26680">
      <path
         style="fill:#ffcf14;stroke:#6a5000;stroke-width:1.41732283000000000;stroke-linecap:butt;stroke-linejoin:miter;stroke-miterlimit:4;stroke-opacity:1;stroke-dasharray:none;fill-opacity:1"
         d="M 283.46457,265.748 318.89764,70.866111 354.33071,265.748 l -35.43307,0 z"
         id="path26543"
         inkscape:connector-curvature="0"
         transform="translate(0,212.59843)"
         sodipodi:nodetypes="ccccc" />
      <path
         style="fill:#ffcf14;stroke:#6a5000;stroke-width:2.04094481000000010;stroke-linecap:butt;stroke-linejoin:miter;stroke-miterlimit:4;stroke-opacity:1;stroke-dasharray:none;fill-opacity:1"
         d="M 288.2117,460.62989 416.33859,309.57376 349.58358,496.06296 318.89764,478.34643 z"
         id="path26543-9"
         inkscape:connector-curvature="0"
         sodipodi:nodetypes="ccccc" />
      <path
         style="fill:#ffcf14;stroke:#6a5000;stroke-width:2.04094481000000010;stroke-linecap:butt;stroke-linejoin:miter;stroke-miterlimit:4;stroke-opacity:1;stroke-dasharray:none;fill-opacity:1"
         d="M 301.1811,447.66049 487.6703,380.90548 336.61417,509.03237 318.89764,478.34643 z"
         id="path26543-6"
         inkscape:connector-curvature="0"
         sodipodi:nodetypes="ccccc" />
      <path
         style="fill:#ffcf14;stroke:#6a5000;stroke-width:2.04094481000000010;stroke-linecap:butt;stroke-linejoin:miter;stroke-miterlimit:4;stroke-opacity:1;stroke-dasharray:none;fill-opacity:1"
         d="m 318.89764,442.91336 194.88189,35.43307 -194.88189,35.43307 0,-35.43307 z"
         id="path26543-4"
         inkscape:connector-curvature="0"
         sodipodi:nodetypes="ccccc" />
      <path
         style="fill:#ffcf14;stroke:#6a5000;stroke-width:2.04094481000000010;stroke-linecap:butt;stroke-linejoin:miter;stroke-miterlimit:4;stroke-opacity:1;stroke-dasharray:none;fill-opacity:1"
         d="M 336.61417,447.66049 487.6703,575.78738 301.1811,509.03237 318.89764,478.34643 z"
         id="path26543-5"
         inkscape:connector-curvature="0"
         sodipodi:nodetypes="ccccc" />
      <path
         style="fill:#ffcf14;stroke:#6a5000;stroke-width:2.04094481000000010;stroke-linecap:butt;stroke-linejoin:miter;stroke-miterlimit:4;stroke-opacity:1;stroke-dasharray:none;fill-opacity:1"
         d="M 349.58357,460.6299 416.33858,647.1191 288.2117,496.06297 318.89764,478.34643 z"
         id="path26543-42"
         inkscape:connector-curvature="0"
         sodipodi:nodetypes="ccccc" />
      <path
         style="fill:#ffcf14;stroke:#6a5000;stroke-width:2.04094481000000010;stroke-linecap:butt;stroke-linejoin:miter;stroke-miterlimit:4;stroke-opacity:1;stroke-dasharray:none;fill-opacity:1"
         d="m 354.33071,478.34643 -35.43307,194.88189 -35.43307,-194.88189 35.43307,0 z"
         id="path26543-53"
         inkscape:connector-curvature="0"
         sodipodi:nodetypes="ccccc" />
      <path
         style="fill:#ffcf14;stroke:#6a5000;stroke-width:2.04094481000000010;stroke-linecap:butt;stroke-linejoin:miter;stroke-miterlimit:4;stroke-opacity:1;stroke-dasharray:none;fill-opacity:1"
         d="M 349.58358,496.06297 221.45669,647.1191 288.2117,460.6299 l 30.68594,17.71653 z"
         id="path26543-2"
         inkscape:connector-curvature="0"
         sodipodi:nodetypes="ccccc" />
      <path
         style="fill:#ffcf14;stroke:#6a5000;stroke-width:2.04094481000000010;stroke-linecap:butt;stroke-linejoin:miter;stroke-miterlimit:4;stroke-opacity:1;stroke-dasharray:none;fill-opacity:1"
         d="m 336.61417,509.03237 -186.4892,66.75501 151.05613,-128.12689 17.71654,30.68594 z"
         id="path26543-68"
         inkscape:connector-curvature="0"
         sodipodi:nodetypes="ccccc" />
      <path
         style="fill:#ffcf14;stroke:#6a5000;stroke-width:2.04094481000000010;stroke-linecap:butt;stroke-linejoin:miter;stroke-miterlimit:4;stroke-opacity:1;stroke-dasharray:none;fill-opacity:1"
         d="m 318.89764,513.7795 -194.88189,-35.43307 194.88189,-35.43307 0,35.43307 z"
         id="path26543-26"
         inkscape:connector-curvature="0"
         sodipodi:nodetypes="ccccc" />
      <path
         style="fill:#ffcf14;stroke:#6a5000;stroke-width:2.04094481000000010;stroke-linecap:butt;stroke-linejoin:miter;stroke-miterlimit:4;stroke-opacity:1;stroke-dasharray:none;fill-opacity:1"
         d="m 301.1811,509.03237 -151.05613,-128.12689 186.4892,66.75501 -17.71653,30.68594 z"
         id="path26543-63"
         inkscape:connector-curvature="0"
         sodipodi:nodetypes="ccccc" />
      <path
         style="fill:#ffcf14;stroke:#6a5000;stroke-width:1.41732283000000000;stroke-linecap:butt;stroke-linejoin:miter;stroke-miterlimit:4;stroke-opacity:1;stroke-dasharray:none;fill-opacity:1"
         d="M 288.2117,496.06296 221.4567,309.57377 349.58357,460.6299 318.89764,478.34643 z"
         id="path26543-94"
         inkscape:connector-curvature="0"
         sodipodi:nodetypes="ccccc" />
    </g>
    <g
       id="g4270"
       style="fill:#ffcf14;fill-opacity:1">
      <path
         inkscape:transform-center-y="71.595552"
         inkscape:transform-center-x="37.124365"
         sodipodi:nodetypes="cscsssssssssssssssssccccc"
         inkscape:connector-curvature="0"
         style="fill:#ffcf14;fill-opacity:1;stroke:#6a5000;stroke-width:1.41732287000000000;stroke-linecap:round;stroke-linejoin:round;stroke-miterlimit:4;stroke-opacity:1;stroke-dasharray:none;stroke-dashoffset:0"
         d="m 357.23808,404.47247 c -8.25361,-25.46798 9.15902,-40.4548 10.73676,-56.63233 3.15081,-19.4148 -9.88256,-26.50136 7.83899,-56.3163 l -3.50485,2.48649 c -2.4078,1.70826 -4.2846,4.06112 -6.23885,6.18616 -1.95435,2.125 -3.71847,4.34558 -5.18494,6.71573 -1.46658,2.37013 -2.63559,4.88974 -3.52155,7.55164 -0.88604,2.66182 -1.49261,5.46414 -1.9502,8.34127 -0.45752,2.87721 -0.77161,5.82644 -1.13343,8.75172 -0.36181,2.92527 -0.77673,5.8239 -1.41596,8.60972 -0.63928,2.78589 -1.50504,5.45791 -2.67834,7.97538 -1.17306,2.51764 -2.65081,4.88215 -4.38828,7.1161 -1.7375,2.234 -3.7299,4.33986 -5.82497,6.39412 -2.09517,2.05424 -4.28726,4.05972 -6.38216,6.11411 -2.09489,2.05434 -4.08792,4.15989 -5.82498,6.39412 -1.73694,2.23422 -3.21584,4.59815 -4.38826,7.11609 -1.17234,2.51798 -2.03953,5.18927 -2.67834,7.97537 -0.6388,2.78606 -1.05423,5.6844 -1.41596,8.60973 -0.36182,2.92526 -0.67565,5.87466 -1.13344,8.75172 -0.45785,2.87699 -1.06362,5.67971 -1.95019,8.34127 -0.88651,2.66161 -2.05445,5.18179 -3.52147,7.55168 -1.46711,2.36985 -3.23032,4.59089 -5.18503,6.7157 -1.95469,2.12482 -4.09516,4.15629 -6.23894,6.18609 l 17.64395,42.93838 z"
         title="sin(x)"
         id="path26987-1" />
      <path
         inkscape:transform-center-y="47.852372"
         inkscape:transform-center-x="60.308364"
         sodipodi:nodetypes="cscsssssssssssssssssccccc"
         inkscape:connector-curvature="0"
         style="fill:#ffcf14;fill-opacity:1;stroke:#6a5000;stroke-width:1.41732287000000000;stroke-linecap:round;stroke-linejoin:round;stroke-miterlimit:4;stroke-opacity:1;stroke-dasharray:none;stroke-dashoffset:0"
         d="m 389.03842,433.53993 c 5.58615,-26.18273 28.15935,-30.45538 37.61447,-43.67666 12.43609,-15.23831 4.69214,-27.89213 34.94692,-44.85185 l -4.27854,0.40093 c -2.93935,0.27545 -5.74113,1.37474 -8.49608,2.23795 -2.75501,0.86313 -5.39308,1.90415 -7.84815,3.22352 -2.45516,1.31931 -4.72736,2.91685 -6.82558,4.77914 -2.09824,1.86218 -4.0247,3.98578 -5.85955,6.24865 -1.83483,2.26298 -3.58146,4.66005 -5.35744,7.0125 -1.77597,2.35246 -3.58462,4.65528 -5.53112,6.74826 -1.94658,2.09301 -4.03236,3.97417 -6.3072,5.56771 -2.27472,1.59381 -4.73675,2.90266 -7.35842,3.96858 -2.62172,1.06595 -5.40011,1.89348 -8.24163,2.62499 -2.84159,0.73144 -5.74273,1.37219 -8.58417,2.10389 -2.8414,0.73167 -5.62019,1.55861 -8.24164,2.62498 -2.62134,1.06642 -5.08407,2.3742 -7.35839,3.96859 -2.27427,1.59446 -4.36092,3.47427 -6.30719,5.5677 -1.94625,2.0934 -3.75519,4.39572 -5.53113,6.74826 -1.77597,2.35244 -3.52246,4.74978 -5.35744,7.0125 -1.83501,2.26262 -3.76098,4.38696 -5.85955,6.24865 -2.09855,1.86177 -4.3701,3.46034 -6.82553,4.77922 -2.45548,1.31879 -5.09298,2.36066 -7.84821,3.22345 -2.75523,0.8628 -5.62466,1.55187 -8.49613,2.23784 l -6.18908,46.0077 z"
         title="sin(x)"
         id="path26987-1-7" />
      <path
         inkscape:transform-center-y="8.6618189"
         inkscape:transform-center-x="76.154764"
         sodipodi:nodetypes="cscsssssssssssssssssccccc"
         inkscape:connector-curvature="0"
         style="fill:#ffcf14;fill-opacity:1;stroke:#6a5000;stroke-width:1.41732287000000000;stroke-linecap:round;stroke-linejoin:round;stroke-miterlimit:4;stroke-opacity:1;stroke-dasharray:none;stroke-dashoffset:0"
         d="m 402.04459,474.61325 c 17.92911,-19.88183 39.6144,-12.29545 54.41342,-19.01786 18.38912,-6.97872 18.00957,-21.80922 52.69084,-21.36938 l -3.90579,-1.79205 c -2.68327,-1.23113 -5.65933,-1.68001 -8.47679,-2.30992 -2.81748,-0.63002 -5.62262,-1.0475 -8.40846,-1.13243 -2.78589,-0.085 -5.55244,0.16239 -8.3007,0.72607 -2.74822,0.56357 -5.47838,1.43944 -8.19884,2.48171 -2.7205,1.04239 -5.43166,2.245 -8.14593,3.39429 -2.71426,1.1493 -5.43201,2.23928 -8.16422,3.0786 -2.73229,0.83931 -5.47921,1.42555 -8.24605,1.66818 -2.76687,0.24292 -5.55348,0.1454 -8.35687,-0.24232 -2.80345,-0.38772 -5.62337,-1.06025 -8.44995,-1.84751 -2.82661,-0.78735 -5.65945,-1.68301 -8.48606,-2.47006 -2.82656,-0.78705 -5.64653,-1.4603 -8.44996,-1.84752 -2.80336,-0.38712 -5.59003,-0.48592 -8.35685,-0.24229 -2.7668,0.2437 -5.5138,0.82834 -8.24603,1.66817 -2.73221,0.83981 -5.44995,1.92921 -8.16423,3.0786 -2.71426,1.14929 -5.42543,2.3522 -8.14593,3.39428 -2.72048,1.04198 -5.45059,1.91873 -8.19885,2.48172 -2.74828,0.56306 -5.51478,0.81169 -8.30069,0.72616 -2.7859,-0.0856 -5.59098,-0.5021 -8.40847,-1.13252 -2.8175,-0.63041 -5.64704,-1.46837 -8.47679,-2.31004 l -28.36375,36.7493 z"
         title="sin(x)"
         id="path26987-1-7-4" />
      <path
         inkscape:transform-center-y="-37.124368"
         inkscape:transform-center-x="71.595554"
         sodipodi:nodetypes="cscsssssssssssssssssccccc"
         inkscape:connector-curvature="0"
         style="fill:#ffcf14;fill-opacity:1;stroke:#6a5000;stroke-width:1.41732287000000000;stroke-linecap:round;stroke-linejoin:round;stroke-miterlimit:4;stroke-opacity:1;stroke-dasharray:none;stroke-dashoffset:0"
         d="m 392.7716,516.68688 c 25.46798,-8.25362 40.45481,9.15902 56.63233,10.73676 19.41481,3.15081 26.50136,-9.88255 56.3163,7.83899 l -2.48648,-3.50486 c -1.70821,-2.40783 -4.06113,-4.28459 -6.18616,-6.23884 -2.125,-1.95435 -4.34559,-3.71847 -6.71573,-5.18494 -2.37014,-1.46658 -4.88975,-2.63559 -7.55165,-3.52155 -2.66181,-0.88604 -5.46413,-1.49261 -8.34126,-1.9502 -2.87721,-0.45752 -5.82645,-0.77161 -8.75172,-1.13343 -2.92528,-0.3618 -5.8239,-0.77673 -8.60973,-1.41596 -2.78589,-0.63928 -5.45791,-1.50504 -7.97538,-2.67834 -2.51764,-1.17306 -4.88215,-2.65081 -7.1161,-4.38829 -2.234,-1.7375 -4.33985,-3.72989 -6.39412,-5.82496 -2.05424,-2.09517 -4.05972,-4.28726 -6.11411,-6.38217 -2.05434,-2.09489 -4.15989,-4.08792 -6.39412,-5.82498 -2.23421,-1.73693 -4.59815,-3.21583 -7.11609,-4.38826 -2.51798,-1.17234 -5.18927,-2.03953 -7.97537,-2.67833 -2.78606,-0.6388 -5.6844,-1.05423 -8.60973,-1.41597 -2.92525,-0.36182 -5.87466,-0.67565 -8.75172,-1.13343 -2.87699,-0.45786 -5.67971,-1.06362 -8.34126,-1.95019 -2.66162,-0.88652 -5.1818,-2.05445 -7.5517,-3.52148 -2.36984,-1.46711 -4.59088,-3.23032 -6.71569,-5.18502 -2.12482,-1.9547 -4.15629,-4.09516 -6.18609,-6.23895 l -42.93838,17.64395 z"
         title="sin(x)"
         id="path26987-1-7-0" />
      <path
         inkscape:transform-center-y="-60.308368"
         inkscape:transform-center-x="47.852374"
         sodipodi:nodetypes="cscsssssssssssssssssccccc"
         inkscape:connector-curvature="0"
         style="fill:#ffcf14;fill-opacity:1;stroke:#6a5000;stroke-width:1.41732287000000000;stroke-linecap:round;stroke-linejoin:round;stroke-miterlimit:4;stroke-opacity:1;stroke-dasharray:none;stroke-dashoffset:0"
         d="m 363.70414,548.48721 c 26.18273,5.58615 30.45538,28.15935 43.67666,37.61447 15.23831,12.43609 27.89213,4.69214 44.85185,34.94692 l -0.40093,-4.27854 c -0.27544,-2.93935 -1.37474,-5.74113 -2.23795,-8.49608 -0.86313,-2.75501 -1.90415,-5.39308 -3.22352,-7.84815 -1.31931,-2.45516 -2.91685,-4.72736 -4.77914,-6.82558 -1.86218,-2.09824 -3.98578,-4.0247 -6.24865,-5.85955 -2.26298,-1.83483 -4.66005,-3.58146 -7.0125,-5.35744 -2.35246,-1.77597 -4.65528,-3.58462 -6.74826,-5.53112 -2.09301,-1.94658 -3.97417,-4.03236 -5.56771,-6.3072 -1.59381,-2.27472 -2.90266,-4.73675 -3.96858,-7.35842 -1.06595,-2.62172 -1.89348,-5.40011 -2.62499,-8.24163 -0.73144,-2.84159 -1.37219,-5.74273 -2.10389,-8.58417 -0.73167,-2.8414 -1.55861,-5.62019 -2.62498,-8.24164 -1.06642,-2.62134 -2.3742,-5.08407 -3.96859,-7.35839 -1.59446,-2.27427 -3.47427,-4.36092 -5.5677,-6.30719 -2.0934,-1.94625 -4.39572,-3.75519 -6.74826,-5.53113 -2.35244,-1.77597 -4.74978,-3.52246 -7.0125,-5.35744 -2.26262,-1.83501 -4.38696,-3.76098 -6.24865,-5.85955 -1.86177,-2.09855 -3.46034,-4.3701 -4.77922,-6.82553 -1.31879,-2.45548 -2.36066,-5.09298 -3.22345,-7.84821 -0.8628,-2.75523 -1.55187,-5.62466 -2.23784,-8.49613 l -46.0077,-6.18908 z"
         title="sin(x)"
         id="path26987-1-7-9" />
      <path
         inkscape:transform-center-y="-76.154758"
         inkscape:transform-center-x="8.6618204"
         sodipodi:nodetypes="cscsssssssssssssssssccccc"
         inkscape:connector-curvature="0"
         style="fill:#ffcf14;fill-opacity:1;stroke:#6a5000;stroke-width:1.41732287000000000;stroke-linecap:round;stroke-linejoin:round;stroke-miterlimit:4;stroke-opacity:1;stroke-dasharray:none;stroke-dashoffset:0"
         d="m 322.63082,561.49337 c 19.88183,17.92912 12.29546,39.61441 19.01786,54.41342 6.97872,18.38913 21.80922,18.00958 21.36938,52.69085 l 1.79206,-3.90579 c 1.23114,-2.68327 1.68,-5.65934 2.30991,-8.4768 0.63002,-2.81747 1.0475,-5.62262 1.13243,-8.40846 0.085,-2.78588 -0.16239,-5.55243 -0.72607,-8.30069 -0.56357,-2.74822 -1.43943,-5.47838 -2.48171,-8.19885 -1.04239,-2.7205 -2.24499,-5.43166 -3.39429,-8.14592 -1.1493,-2.71427 -2.23928,-5.43202 -3.0786,-8.16423 -0.83931,-2.73229 -1.42555,-5.47921 -1.66818,-8.24605 -0.24292,-2.76687 -0.1454,-5.55347 0.24232,-8.35686 0.38772,-2.80346 1.06025,-5.62338 1.84751,-8.44996 0.78735,-2.82661 1.68301,-5.65945 2.47006,-8.48606 0.78706,-2.82656 1.4603,-5.64653 1.84752,-8.44996 0.38712,-2.80335 0.48592,-5.59003 0.2423,-8.35684 -0.24371,-2.76681 -0.82835,-5.51381 -1.66818,-8.24604 -0.83981,-2.7322 -1.92921,-5.44995 -3.0786,-8.16423 -1.14929,-2.71425 -2.3522,-5.42543 -3.39428,-8.14593 -1.04198,-2.72047 -1.91873,-5.45058 -2.48172,-8.19884 -0.56306,-2.74828 -0.81169,-5.51479 -0.72616,-8.30069 0.0856,-2.78591 0.5021,-5.59098 1.13252,-8.40848 0.63041,-2.8175 1.46837,-5.64703 2.31004,-8.47678 l -36.7493,-28.36375 z"
         title="sin(x)"
         id="path26987-1-7-48" />
      <path
         inkscape:transform-center-y="-71.595548"
         inkscape:transform-center-x="-37.124363"
         sodipodi:nodetypes="cscsssssssssssssssssccccc"
         inkscape:connector-curvature="0"
         style="fill:#ffcf14;fill-opacity:1;stroke:#6a5000;stroke-width:1.41732287000000000;stroke-linecap:round;stroke-linejoin:round;stroke-miterlimit:4;stroke-opacity:1;stroke-dasharray:none;stroke-dashoffset:0"
         d="m 280.55719,552.22038 c 8.25362,25.46799 -9.15902,40.45481 -10.73676,56.63233 -3.15081,19.41481 9.88256,26.50137 -7.83899,56.31631 l 3.50486,-2.48649 c 2.40783,-1.70821 4.28459,-4.06112 6.23884,-6.18616 1.95435,-2.125 3.71847,-4.34558 5.18494,-6.71573 1.46658,-2.37013 2.63559,-4.88974 3.52156,-7.55164 0.88604,-2.66182 1.4926,-5.46414 1.95019,-8.34127 0.45752,-2.87721 0.77161,-5.82645 1.13343,-8.75172 0.36181,-2.92528 0.77673,-5.8239 1.41596,-8.60972 0.63928,-2.78589 1.50504,-5.45792 2.67834,-7.97538 1.17306,-2.51764 2.65082,-4.88216 4.38829,-7.1161 1.7375,-2.234 3.72989,-4.33986 5.82497,-6.39413 2.09516,-2.05424 4.28725,-4.05971 6.38216,-6.1141 2.09489,-2.05435 4.08792,-4.15989 5.82498,-6.39412 1.73694,-2.23422 3.21583,-4.59816 4.38826,-7.1161 1.17234,-2.51798 2.03953,-5.18926 2.67833,-7.97536 0.63881,-2.78607 1.05423,-5.6844 1.41597,-8.60973 0.36182,-2.92526 0.67565,-5.87466 1.13343,-8.75173 0.45785,-2.87699 1.06362,-5.6797 1.95019,-8.34126 0.88651,-2.66162 2.05445,-5.18179 3.52147,-7.55169 1.46712,-2.36985 3.23032,-4.59088 5.18503,-6.7157 1.9547,-2.12482 4.09516,-4.15628 6.23894,-6.18609 l -17.64394,-42.93837 z"
         title="sin(x)"
         id="path26987-1-7-8" />
      <path
         inkscape:transform-center-y="-47.852368"
         inkscape:transform-center-x="-60.308363"
         sodipodi:nodetypes="cscsssssssssssssssssccccc"
         inkscape:connector-curvature="0"
         style="fill:#ffcf14;fill-opacity:1;stroke:#6a5000;stroke-width:1.41732287000000000;stroke-linecap:round;stroke-linejoin:round;stroke-miterlimit:4;stroke-opacity:1;stroke-dasharray:none;stroke-dashoffset:0"
         d="m 248.75686,523.15293 c -5.58615,26.18273 -28.15935,30.45538 -37.61447,43.67666 -12.43609,15.23831 -4.69214,27.89213 -34.94692,44.85185 l 4.27854,-0.40093 c 2.93935,-0.27544 5.74113,-1.37474 8.49608,-2.23795 2.75501,-0.86313 5.39308,-1.90415 7.84815,-3.22352 2.45516,-1.31931 4.72736,-2.91685 6.82558,-4.77914 2.09824,-1.86218 4.0247,-3.98578 5.85955,-6.24865 1.83483,-2.26298 3.58146,-4.66005 5.35744,-7.0125 1.77597,-2.35246 3.58462,-4.65528 5.53112,-6.74826 1.94658,-2.09301 4.03236,-3.97417 6.3072,-5.56771 2.27472,-1.59381 4.73675,-2.90266 7.35842,-3.96858 2.62172,-1.06595 5.40011,-1.89348 8.24163,-2.62499 2.84159,-0.73144 5.74273,-1.37219 8.58417,-2.10389 2.8414,-0.73167 5.62019,-1.55861 8.24164,-2.62498 2.62134,-1.06642 5.08407,-2.3742 7.35839,-3.96859 2.27427,-1.59446 4.36092,-3.47427 6.30719,-5.5677 1.94625,-2.0934 3.75519,-4.39572 5.53113,-6.74826 1.77597,-2.35244 3.52246,-4.74978 5.35744,-7.0125 1.83501,-2.26262 3.76098,-4.38696 5.85955,-6.24865 2.09855,-1.86177 4.3701,-3.46034 6.82553,-4.77922 2.45548,-1.31879 5.09298,-2.36066 7.84821,-3.22345 2.75523,-0.8628 5.62466,-1.55187 8.49613,-2.23784 l 6.18908,-46.0077 z"
         title="sin(x)"
         id="path26987-1-7-2" />
      <path
         inkscape:transform-center-y="-8.6618197"
         inkscape:transform-center-x="-76.154763"
         sodipodi:nodetypes="cscsssssssssssssssssccccc"
         inkscape:connector-curvature="0"
         style="fill:#ffcf14;fill-opacity:1;stroke:#6a5000;stroke-width:1.41732287000000000;stroke-linecap:round;stroke-linejoin:round;stroke-miterlimit:4;stroke-opacity:1;stroke-dasharray:none;stroke-dashoffset:0"
         d="m 235.75068,482.0796 c -17.92911,19.88184 -39.6144,12.29546 -54.41341,19.01786 -18.38913,6.97872 -18.00958,21.80923 -52.69085,21.36939 l 3.90579,1.79205 c 2.68328,1.23114 5.65934,1.68001 8.4768,2.30992 2.81747,0.63001 5.62262,1.0475 8.40846,1.13242 2.78588,0.085 5.55243,-0.16238 8.30069,-0.72606 2.74822,-0.56358 5.47838,-1.43944 8.19885,-2.48172 2.7205,-1.04238 5.43166,-2.24499 8.14593,-3.39428 2.71426,-1.14931 5.43201,-2.23928 8.16421,-3.07861 2.7323,-0.83931 5.47922,-1.42555 8.24605,-1.66817 2.76688,-0.24292 5.55348,-0.14541 8.35687,0.24231 2.80345,0.38772 5.62338,1.06026 8.44996,1.84751 2.82661,0.78735 5.65944,1.68301 8.48605,2.47006 2.82656,0.78706 5.64654,1.4603 8.44996,1.84752 2.80336,0.38713 5.59004,0.48592 8.35685,0.2423 2.76681,-0.24371 5.51381,-0.82835 8.24604,-1.66817 2.7322,-0.83982 5.44995,-1.92921 8.16423,-3.0786 2.71425,-1.14929 5.42543,-2.3522 8.14593,-3.39429 2.72047,-1.04198 5.45058,-1.91873 8.19884,-2.48171 2.74829,-0.56307 5.51479,-0.81169 8.3007,-0.72616 2.7859,0.0856 5.59098,0.5021 8.40847,1.13251 2.8175,0.63041 5.64703,1.46837 8.47679,2.31004 l 28.36375,-36.74929 z"
         title="sin(x)"
         id="path26987-1-7-45" />
      <path
         inkscape:transform-center-y="37.124362"
         inkscape:transform-center-x="-71.595554"
         sodipodi:nodetypes="cscsssssssssssssssssccccc"
         inkscape:connector-curvature="0"
         style="fill:#ffcf14;fill-opacity:1;stroke:#6a5000;stroke-width:1.41732287000000000;stroke-linecap:round;stroke-linejoin:round;stroke-miterlimit:4;stroke-opacity:1;stroke-dasharray:none;stroke-dashoffset:0"
         d="m 245.02368,440.00598 c -25.46799,8.25362 -40.45481,-9.15902 -56.63234,-10.73675 -19.4148,-3.15082 -26.50136,9.88255 -56.3163,-7.839 l 2.48649,3.50486 c 1.70821,2.40784 4.06112,4.2846 6.18616,6.23885 2.125,1.95434 4.34558,3.71847 6.71572,5.18494 2.37014,1.46657 4.88975,2.63558 7.55165,3.52155 2.66182,0.88604 5.46414,1.4926 8.34127,1.9502 2.87721,0.45751 5.82645,0.77161 8.75172,1.13342 2.92527,0.36181 5.8239,0.77674 8.60972,1.41596 2.78589,0.63929 5.45792,1.50505 7.97538,2.67834 2.51764,1.17306 4.88215,2.65082 7.1161,4.38829 2.234,1.7375 4.33986,3.7299 6.39413,5.82497 2.05424,2.09517 4.05971,4.28725 6.1141,6.38216 2.05435,2.09489 4.15989,4.08793 6.39412,5.82498 2.23422,1.73694 4.59815,3.21584 7.1161,4.38826 2.51797,1.17235 5.18926,2.03953 7.97536,2.67834 2.78606,0.6388 5.6844,1.05423 8.60973,1.41597 2.92526,0.36181 5.87466,0.67565 8.75172,1.13343 2.877,0.45785 5.67971,1.06362 8.34127,1.95019 2.66161,0.88651 5.18179,2.05445 7.55169,3.52147 2.36985,1.46712 4.59088,3.23032 6.7157,5.18503 2.12482,1.9547 4.15629,4.09516 6.18609,6.23894 l 42.93838,-17.64395 z"
         title="sin(x)"
         id="path26987-1-7-5" />
      <path
         inkscape:transform-center-y="60.308362"
         inkscape:transform-center-x="-47.852372"
         sodipodi:nodetypes="cscsssssssssssssssssccccc"
         inkscape:connector-curvature="0"
         style="fill:#ffcf14;fill-opacity:1;stroke:#6a5000;stroke-width:1.41732287000000000;stroke-linecap:round;stroke-linejoin:round;stroke-miterlimit:4;stroke-opacity:1;stroke-dasharray:none;stroke-dashoffset:0"
         d="m 274.09114,408.20565 c -26.18273,-5.58615 -30.45538,-28.15935 -43.67666,-37.61447 -15.23831,-12.43609 -27.89213,-4.69214 -44.85185,-34.94692 l 0.40093,4.27854 c 0.27544,2.93935 1.37474,5.74113 2.23795,8.49608 0.86313,2.75501 1.90415,5.39308 3.22352,7.84815 1.31931,2.45516 2.91685,4.72736 4.77914,6.82558 1.86218,2.09824 3.98578,4.0247 6.24865,5.85955 2.26298,1.83483 4.66005,3.58146 7.0125,5.35744 2.35246,1.77597 4.65528,3.58462 6.74826,5.53112 2.09301,1.94658 3.97417,4.03236 5.56771,6.3072 1.59381,2.27472 2.90266,4.73675 3.96858,7.35842 1.06595,2.62172 1.89348,5.40011 2.62499,8.24163 0.73144,2.84159 1.37219,5.74273 2.10389,8.58417 0.73167,2.8414 1.55861,5.62019 2.62498,8.24164 1.06642,2.62134 2.3742,5.08407 3.96859,7.35839 1.59446,2.27427 3.47427,4.36092 5.5677,6.30719 2.0934,1.94625 4.39572,3.75519 6.74826,5.53113 2.35244,1.77597 4.74978,3.52246 7.0125,5.35744 2.26262,1.83501 4.38696,3.76098 6.24865,5.85955 1.86177,2.09855 3.46034,4.3701 4.77922,6.82553 1.31879,2.45548 2.36066,5.09298 3.22345,7.84821 0.8628,2.75523 1.55187,5.62466 2.23784,8.49613 l 46.0077,6.18908 z"
         title="sin(x)"
         id="path26987-1-7-1" />
      <path
         inkscape:transform-center-y="76.154762"
         inkscape:transform-center-x="-8.6618175"
         sodipodi:nodetypes="cscsssssssssssssssssccccc"
         inkscape:connector-curvature="0"
         style="fill:#ffcf14;fill-opacity:1;stroke:#6a5000;stroke-width:1.41732287000000000;stroke-linecap:round;stroke-linejoin:round;stroke-miterlimit:4;stroke-opacity:1;stroke-dasharray:none;stroke-dashoffset:0"
         d="m 315.16446,395.19948 c -19.88184,-17.92911 -12.29546,-39.6144 -19.01787,-54.41341 -6.97871,-18.38913 -21.80922,-18.00958 -21.36938,-52.69085 l -1.79205,3.90579 c -1.23114,2.68328 -1.68001,5.65934 -2.30992,8.4768 -0.63001,2.81747 -1.0475,5.62262 -1.13242,8.40845 -0.085,2.78589 0.16238,5.55244 0.72606,8.3007 0.56358,2.74822 1.43944,5.47838 2.48172,8.19884 1.04238,2.7205 2.24499,5.43167 3.39428,8.14593 1.14931,2.71427 2.23928,5.43202 3.07861,8.16422 0.83931,2.7323 1.42555,5.47921 1.66817,8.24605 0.24292,2.76687 0.14541,5.55348 -0.24232,8.35687 -0.38772,2.80345 -1.06025,5.62337 -1.8475,8.44996 -0.78735,2.82661 -1.68302,5.65944 -2.47006,8.48605 -0.78706,2.82656 -1.4603,5.64654 -1.84753,8.44996 -0.38712,2.80336 -0.48591,5.59004 -0.24229,8.35685 0.24371,2.76681 0.82835,5.5138 1.66817,8.24604 0.83982,2.7322 1.92921,5.44995 3.0786,8.16423 1.14929,2.71425 2.3522,5.42543 3.39429,8.14593 1.04198,2.72047 1.91873,5.45058 2.48171,8.19884 0.56307,2.74828 0.81169,5.51479 0.72616,8.30069 -0.0856,2.7859 -0.50209,5.59098 -1.13251,8.40847 -0.63041,2.8175 -1.46837,5.64703 -2.31004,8.47679 l 36.7493,28.36375 z"
         title="sin(x)"
         id="path26987-1-7-7" />
    </g>
    <g
       id="g3749"
       transform="matrix(0.20402,0,0,0.20402,114.8876,352.14438)">
      <g
         inkscape:transform-center-y="397.64079"
         inkscape:transform-center-x="0.15805084"
         id="g5864"
         transform="matrix(-0.80901699,0.58778526,-0.58778526,-0.80901699,2167.566,515.71519)">
        <path
           style="fill:none;stroke:#003100;stroke-width:5;stroke-linecap:butt;stroke-linejoin:miter;stroke-miterlimit:4;stroke-opacity:1;stroke-dasharray:none"
           d="m 1182.5825,358.6967 100.599,-138.46257"
           id="path5866"
           inkscape:connector-curvature="0"
           sodipodi:nodetypes="cc" />
        <path
           inkscape:connector-curvature="0"
           id="path5868"
           d="m 1197.5377,335.15376 c 0.1483,-0.12071 18.8711,-25.82757 41.6069,-57.12589 l 41.334,-56.90829 -38.1706,12.30144 c -20.9943,6.76469 -38.2046,12.3672 -38.2454,12.44983 -0.041,0.0809 0.4522,2.31911 1.0966,4.97339 3.7747,15.5455 4.3575,30.96826 1.8006,47.64174 -1.6274,10.6107 -4.641,22.2839 -8.3948,32.51545 -1.3961,3.80542 -1.5967,4.61343 -1.0303,4.15107 l 0,0 z"
           style="fill:#217200;fill-opacity:1;stroke:none" />
        <path
           style="fill:none;stroke:#003100;stroke-width:5;stroke-linecap:square;stroke-linejoin:miter;stroke-miterlimit:4;stroke-opacity:1;stroke-dasharray:none"
           d="m 1285,305 0,-87 -82.7418,26.88442"
           id="path5870"
           inkscape:connector-curvature="0"
           sodipodi:nodetypes="ccc" />
        <path
           style="fill:#5ab124;fill-opacity:1;stroke:none"
           d="m 1200.001,337.65119 c 0.069,-0.17816 18.732,-25.92861 41.4728,-57.22322 l 41.3466,-56.89928 0.096,40.10383 c 0.054,22.0571 0.044,40.15646 -0.022,40.22082 -0.064,0.0643 -2.3453,0.28658 -5.0689,0.49384 -15.951,1.21389 -30.799,5.42546 -45.8663,13.00976 -9.5884,4.82647 -19.7591,11.29993 -28.3299,18.03169 -3.1878,2.50368 -3.8943,2.94415 -3.6295,2.26256 l 0,0 z"
           id="path5872"
           inkscape:connector-curvature="0" />
      </g>
      <g
         transform="matrix(-0.809017,-0.58778525,0.58778525,-0.809017,1450.4679,1691.2856)"
         id="g5854"
         inkscape:transform-center-x="378.20329"
         inkscape:transform-center-y="127.86584">
        <path
           sodipodi:nodetypes="cc"
           inkscape:connector-curvature="0"
           id="path5856"
           d="m 1182.5825,358.6967 100.599,-138.46257"
           style="fill:none;stroke:#003100;stroke-width:5;stroke-linecap:butt;stroke-linejoin:miter;stroke-miterlimit:4;stroke-opacity:1;stroke-dasharray:none" />
        <path
           style="fill:#217200;fill-opacity:1;stroke:none"
           d="m 1197.5377,335.15376 c 0.1483,-0.12071 18.8711,-25.82757 41.6069,-57.12589 l 41.334,-56.90829 -38.1706,12.30144 c -20.9943,6.76469 -38.2046,12.3672 -38.2454,12.44983 -0.041,0.0809 0.4522,2.31911 1.0966,4.97339 3.7747,15.5455 4.3575,30.96826 1.8006,47.64174 -1.6274,10.6107 -4.641,22.2839 -8.3948,32.51545 -1.3961,3.80542 -1.5967,4.61343 -1.0303,4.15107 l 0,0 z"
           id="path5858"
           inkscape:connector-curvature="0" />
        <path
           sodipodi:nodetypes="ccc"
           inkscape:connector-curvature="0"
           id="path5860"
           d="m 1285,305 0,-87 -82.7418,26.88442"
           style="fill:none;stroke:#003100;stroke-width:5;stroke-linecap:square;stroke-linejoin:miter;stroke-miterlimit:4;stroke-opacity:1;stroke-dasharray:none" />
        <path
           inkscape:connector-curvature="0"
           id="path5862"
           d="m 1200.001,337.65119 c 0.069,-0.17816 18.732,-25.92861 41.4728,-57.22322 l 41.3466,-56.89928 0.096,40.10383 c 0.054,22.0571 0.044,40.15646 -0.022,40.22082 -0.064,0.0643 -2.3453,0.28658 -5.0689,0.49384 -15.951,1.21389 -30.799,5.42546 -45.8663,13.00976 -9.5884,4.82647 -19.7591,11.29993 -28.3299,18.03169 -3.1878,2.50368 -3.8943,2.94415 -3.6295,2.26256 l 0,0 z"
           style="fill:#5ab124;fill-opacity:1;stroke:none" />
      </g>
      <g
         inkscape:transform-center-y="-321.74457"
         inkscape:transform-center-x="233.66344"
         id="g5844"
         transform="matrix(0.30901699,-0.95105652,0.95105652,0.30901699,110.83853,1372.5561)">
        <path
           style="fill:none;stroke:#003100;stroke-width:5;stroke-linecap:butt;stroke-linejoin:miter;stroke-miterlimit:4;stroke-opacity:1;stroke-dasharray:none"
           d="m 1182.5825,358.6967 100.599,-138.46257"
           id="path5846"
           inkscape:connector-curvature="0"
           sodipodi:nodetypes="cc" />
        <path
           inkscape:connector-curvature="0"
           id="path5848"
           d="m 1197.5377,335.15376 c 0.1483,-0.12071 18.8711,-25.82757 41.6069,-57.12589 l 41.334,-56.90829 -38.1706,12.30144 c -20.9943,6.76469 -38.2046,12.3672 -38.2454,12.44983 -0.041,0.0809 0.4522,2.31911 1.0966,4.97339 3.7747,15.5455 4.3575,30.96826 1.8006,47.64174 -1.6274,10.6107 -4.641,22.2839 -8.3948,32.51545 -1.3961,3.80542 -1.5967,4.61343 -1.0303,4.15107 l 0,0 z"
           style="fill:#217200;fill-opacity:1;stroke:none" />
        <path
           style="fill:none;stroke:#003100;stroke-width:5;stroke-linecap:square;stroke-linejoin:miter;stroke-miterlimit:4;stroke-opacity:1;stroke-dasharray:none"
           d="m 1285,305 0,-87 -82.7418,26.88442"
           id="path5850"
           inkscape:connector-curvature="0"
           sodipodi:nodetypes="ccc" />
        <path
           style="fill:#5ab124;fill-opacity:1;stroke:none"
           d="m 1200.001,337.65119 c 0.069,-0.17816 18.732,-25.92861 41.4728,-57.22322 l 41.3466,-56.89928 0.096,40.10383 c 0.054,22.0571 0.044,40.15646 -0.022,40.22082 -0.064,0.0643 -2.3453,0.28658 -5.0689,0.49384 -15.951,1.21389 -30.799,5.42546 -45.8663,13.00976 -9.5884,4.82647 -19.7591,11.29993 -28.3299,18.03169 -3.1878,2.50368 -3.8943,2.94415 -3.6295,2.26256 l 0,0 z"
           id="path5852"
           inkscape:connector-curvature="0" />
      </g>
      <path
         style="fill:#ffffff;fill-opacity:1;stroke:none"
         d="m 830,550 170,-120 170,120 -70,200 -205,0 z"
         id="path6303"
         inkscape:connector-curvature="0"
         sodipodi:nodetypes="cccccc" />
      <g
         id="g5838"
         inkscape:transform-center-x="-233.79125"
         inkscape:transform-center-y="-321.65165">
        <path
           sodipodi:nodetypes="cc"
           inkscape:connector-curvature="0"
           id="path2999-1-7"
           d="m 1182.5825,358.6967 100.599,-138.46257"
           style="fill:none;stroke:#003100;stroke-width:5;stroke-linecap:butt;stroke-linejoin:miter;stroke-miterlimit:4;stroke-opacity:1;stroke-dasharray:none" />
        <path
           style="fill:#217200;fill-opacity:1;stroke:none"
           d="m 1197.5377,335.15376 c 0.1483,-0.12071 18.8711,-25.82757 41.6069,-57.12589 l 41.334,-56.90829 -38.1706,12.30144 c -20.9943,6.76469 -38.2046,12.3672 -38.2454,12.44983 -0.041,0.0809 0.4522,2.31911 1.0966,4.97339 3.7747,15.5455 4.3575,30.96826 1.8006,47.64174 -1.6274,10.6107 -4.641,22.2839 -8.3948,32.51545 -1.3961,3.80542 -1.5967,4.61343 -1.0303,4.15107 l 0,0 z"
           id="path5816"
           inkscape:connector-curvature="0" />
        <path
           sodipodi:nodetypes="ccc"
           inkscape:connector-curvature="0"
           id="path5792"
           d="m 1285,305 0,-87 -82.7418,26.88442"
           style="fill:none;stroke:#003100;stroke-width:5;stroke-linecap:square;stroke-linejoin:miter;stroke-miterlimit:4;stroke-opacity:1;stroke-dasharray:none" />
        <path
           inkscape:connector-curvature="0"
           id="path5814"
           d="m 1200.001,337.65119 c 0.069,-0.17816 18.732,-25.92861 41.4728,-57.22322 l 41.3466,-56.89928 0.096,40.10383 c 0.054,22.0571 0.044,40.15646 -0.022,40.22082 -0.064,0.0643 -2.3453,0.28658 -5.0689,0.49384 -15.951,1.21389 -30.799,5.42546 -45.8663,13.00976 -9.5884,4.82647 -19.7591,11.29993 -28.3299,18.03169 -3.1878,2.50368 -3.8943,2.94415 -3.6295,2.26256 l 0,0 z"
           style="fill:#5ab124;fill-opacity:1;stroke:none" />
      </g>
      <g
         transform="matrix(0.309017,0.95105651,-0.95105651,0.309017,1271.1276,-529.55686)"
         id="g5874"
         inkscape:transform-center-x="-378.15449"
         inkscape:transform-center-y="128.16651">
        <path
           sodipodi:nodetypes="cc"
           inkscape:connector-curvature="0"
           id="path5876"
           d="m 1182.5825,358.6967 100.599,-138.46257"
           style="fill:none;stroke:#003100;stroke-width:5;stroke-linecap:butt;stroke-linejoin:miter;stroke-miterlimit:4;stroke-opacity:1;stroke-dasharray:none" />
        <path
           style="fill:#217200;fill-opacity:1;stroke:none"
           d="m 1197.5377,335.15376 c 0.1483,-0.12071 18.8711,-25.82757 41.6069,-57.12589 l 41.334,-56.90829 -38.1706,12.30144 c -20.9943,6.76469 -38.2046,12.3672 -38.2454,12.44983 -0.041,0.0809 0.4522,2.31911 1.0966,4.97339 3.7747,15.5455 4.3575,30.96826 1.8006,47.64174 -1.6274,10.6107 -4.641,22.2839 -8.3948,32.51545 -1.3961,3.80542 -1.5967,4.61343 -1.0303,4.15107 l 0,0 z"
           id="path5878"
           inkscape:connector-curvature="0" />
        <path
           sodipodi:nodetypes="ccc"
           inkscape:connector-curvature="0"
           id="path5880"
           d="m 1285,305 0,-87 -82.7418,26.88442"
           style="fill:none;stroke:#003100;stroke-width:5;stroke-linecap:square;stroke-linejoin:miter;stroke-miterlimit:4;stroke-opacity:1;stroke-dasharray:none" />
        <path
           inkscape:connector-curvature="0"
           id="path5882"
           d="m 1200.001,337.65119 c 0.069,-0.17816 18.732,-25.92861 41.4728,-57.22322 l 41.3466,-56.89928 0.096,40.10383 c 0.054,22.0571 0.044,40.15646 -0.022,40.22082 -0.064,0.0643 -2.3453,0.28658 -5.0689,0.49384 -15.951,1.21389 -30.799,5.42546 -45.8663,13.00976 -9.5884,4.82647 -19.7591,11.29993 -28.3299,18.03169 -3.1878,2.50368 -3.8943,2.94415 -3.6295,2.26256 l 0,0 z"
           style="fill:#5ab124;fill-opacity:1;stroke:none" />
      </g>
      <g
         id="g5637"
         inkscape:transform-center-y="-16.253018"
         style="fill:#ffffff;fill-opacity:1;stroke:#6a5000;stroke-opacity:1">
        <path
           inkscape:transform-center-y="-342.5"
           sodipodi:nodetypes="czc"
           inkscape:connector-curvature="0"
           id="path5479"
           d="m 840,390 c -130,-180 50,-245 160,-245 110,0 290,65 160,245"
           style="fill:#ffffff;fill-opacity:1;stroke:#6a5000;stroke-width:10;stroke-linecap:butt;stroke-linejoin:miter;stroke-miterlimit:4;stroke-opacity:1;stroke-dasharray:none" />
        <path
           inkscape:transform-center-x="308.76435"
           style="fill:#ffffff;fill-opacity:1;stroke:#6a5000;stroke-width:10;stroke-linecap:butt;stroke-linejoin:miter;stroke-miterlimit:4;stroke-opacity:1;stroke-dasharray:none"
           d="M 741.32485,694.1853 C 529.96247,762.1996 523.76686,570.92332 557.75872,466.3071 591.75059,361.69088 709.19233,210.58681 840.21032,389.8472"
           id="path5629"
           inkscape:connector-curvature="0"
           sodipodi:nodetypes="czc"
           inkscape:transform-center-y="-102.39031" />
        <path
           inkscape:transform-center-y="258.21602"
           sodipodi:nodetypes="czc"
           inkscape:connector-curvature="0"
           id="path5631"
           d="M 1000.13,882.02938 C 999.50085,1104.0645 815.67174,1050.8493 726.67987,986.19291 637.688,921.53653 530.27098,763.14907 741.24453,693.93806"
           style="fill:#ffffff;fill-opacity:1;stroke:#6a5000;stroke-width:10;stroke-linecap:butt;stroke-linejoin:miter;stroke-miterlimit:4;stroke-opacity:1;stroke-dasharray:none"
           inkscape:transform-center-x="190.47535" />
        <path
           inkscape:transform-center-x="-190.47534"
           style="fill:#ffffff;fill-opacity:1;stroke:#6a5000;stroke-width:10;stroke-linecap:butt;stroke-linejoin:miter;stroke-miterlimit:4;stroke-opacity:1;stroke-dasharray:none"
           d="m 1258.7555,693.93808 c 210.9735,69.21099 103.5565,227.59844 14.5646,292.25482 -88.9918,64.6564 -272.8209,117.8716 -273.45009,-104.16354"
           id="path5633"
           inkscape:connector-curvature="0"
           sodipodi:nodetypes="czc"
           inkscape:transform-center-y="258.21603" />
        <path
           inkscape:transform-center-y="-102.39029"
           sodipodi:nodetypes="czc"
           inkscape:connector-curvature="0"
           id="path5635"
           d="m 1159.7897,389.84717 c 131.018,-179.26032 248.4597,-28.15625 282.4516,76.45994 33.9919,104.61616 27.7963,295.89248 -183.5662,227.87821"
           style="fill:#ffffff;fill-opacity:1;stroke:#6a5000;stroke-width:10;stroke-linecap:butt;stroke-linejoin:miter;stroke-miterlimit:4;stroke-opacity:1;stroke-dasharray:none"
           inkscape:transform-center-x="-308.76437" />
      </g>
      <g
         transform="matrix(-0.5811606,0,0,-0.5811606,1581.1171,960.86932)"
         id="g6173"
         inkscape:transform-center-x="233.66344"
         inkscape:transform-center-y="-321.74457">
        <path
           sodipodi:nodetypes="cc"
           inkscape:connector-curvature="0"
           id="path6175"
           d="m 1182.5825,358.6967 100.599,-138.46257"
           style="fill:none;stroke:#003100;stroke-width:5;stroke-linecap:butt;stroke-linejoin:miter;stroke-miterlimit:4;stroke-opacity:1;stroke-dasharray:none" />
        <path
           style="fill:#217200;fill-opacity:1;stroke:none"
           d="m 1197.5377,335.15376 c 0.1483,-0.12071 18.8711,-25.82757 41.6069,-57.12589 l 41.334,-56.90829 -38.1706,12.30144 c -20.9943,6.76469 -38.2046,12.3672 -38.2454,12.44983 -0.041,0.0809 0.4522,2.31911 1.0966,4.97339 3.7747,15.5455 4.3575,30.96826 1.8006,47.64174 -1.6274,10.6107 -4.641,22.2839 -8.3948,32.51545 -1.3961,3.80542 -1.5967,4.61343 -1.0303,4.15107 l 0,0 z"
           id="path6177"
           inkscape:connector-curvature="0" />
        <path
           sodipodi:nodetypes="ccc"
           inkscape:connector-curvature="0"
           id="path6179"
           d="m 1285,305 0,-87 -82.7418,26.88442"
           style="fill:none;stroke:#003100;stroke-width:5;stroke-linecap:square;stroke-linejoin:miter;stroke-miterlimit:4;stroke-opacity:1;stroke-dasharray:none" />
        <path
           inkscape:connector-curvature="0"
           id="path6181"
           d="m 1200.001,337.65119 c 0.069,-0.17816 18.732,-25.92861 41.4728,-57.22322 l 41.3466,-56.89928 0.096,40.10383 c 0.054,22.0571 0.044,40.15646 -0.022,40.22082 -0.064,0.0643 -2.3453,0.28658 -5.0689,0.49384 -15.951,1.21389 -30.799,5.42546 -45.8663,13.00976 -9.5884,4.82647 -19.7591,11.29993 -28.3299,18.03169 -3.1878,2.50368 -3.8943,2.94415 -3.6295,2.26256 l 0,0 z"
           style="fill:#5ab124;fill-opacity:1;stroke:none" />
      </g>
      <path
         sodipodi:nodetypes="zzzczzscz"
         inkscape:connector-curvature="0"
         id="path5672"
         d="m 1105,245 c -30,0 -63.0005,20 -105,20 -41.99953,0 -75,-20 -105,-20 -30,0 -45,20 -5,80 -95,-70 -35,-117 5,-117 40,0 63.00047,17 105,17 41.9995,0 65,-17 105,-17 40,0 100,47 5,117 40,-60 25,-80 -5,-80 z"
         style="fill:#d1d159;fill-opacity:1;stroke:#d1d159;stroke-width:3.20000005;stroke-linecap:butt;stroke-linejoin:miter;stroke-miterlimit:4;stroke-opacity:1;stroke-dasharray:none;filter:url(#filter5728)" />
      <g
         inkscape:transform-center-y="128.16651"
         inkscape:transform-center-x="-378.15449"
         id="g6203"
         transform="matrix(0.47016879,-0.34159763,0.34159763,0.47016879,321.41319,661.15594)">
        <path
           style="fill:none;stroke:#003100;stroke-width:5;stroke-linecap:butt;stroke-linejoin:miter;stroke-miterlimit:4;stroke-opacity:1;stroke-dasharray:none"
           d="m 1182.5825,358.6967 100.599,-138.46257"
           id="path6205"
           inkscape:connector-curvature="0"
           sodipodi:nodetypes="cc" />
        <path
           inkscape:connector-curvature="0"
           id="path6207"
           d="m 1197.5377,335.15376 c 0.1483,-0.12071 18.8711,-25.82757 41.6069,-57.12589 l 41.334,-56.90829 -38.1706,12.30144 c -20.9943,6.76469 -38.2046,12.3672 -38.2454,12.44983 -0.041,0.0809 0.4522,2.31911 1.0966,4.97339 3.7747,15.5455 4.3575,30.96826 1.8006,47.64174 -1.6274,10.6107 -4.641,22.2839 -8.3948,32.51545 -1.3961,3.80542 -1.5967,4.61343 -1.0303,4.15107 l 0,0 z"
           style="fill:#217200;fill-opacity:1;stroke:none" />
        <path
           style="fill:none;stroke:#003100;stroke-width:5;stroke-linecap:square;stroke-linejoin:miter;stroke-miterlimit:4;stroke-opacity:1;stroke-dasharray:none"
           d="m 1285,305 0,-87 -82.7418,26.88442"
           id="path6209"
           inkscape:connector-curvature="0"
           sodipodi:nodetypes="ccc" />
        <path
           style="fill:#5ab124;fill-opacity:1;stroke:none"
           d="m 1200.001,337.65119 c 0.069,-0.17816 18.732,-25.92861 41.4728,-57.22322 l 41.3466,-56.89928 0.096,40.10383 c 0.054,22.0571 0.044,40.15646 -0.022,40.22082 -0.064,0.0643 -2.3453,0.28658 -5.0689,0.49384 -15.951,1.21389 -30.799,5.42546 -45.8663,13.00976 -9.5884,4.82647 -19.7591,11.29993 -28.3299,18.03169 -3.1878,2.50368 -3.8943,2.94415 -3.6295,2.26256 l 0,0 z"
           id="path6211"
           inkscape:connector-curvature="0" />
      </g>
      <path
         style="fill:none;stroke:#6a5000;stroke-width:10;stroke-linecap:butt;stroke-linejoin:miter;stroke-miterlimit:4;stroke-opacity:1;stroke-dasharray:none"
         d="m 890,325 c -95,-70 -35,-117 5,-117 40,0 63.00047,17 105,17 41.9995,0 65,-17 105,-17 40,0 100,47 5,117"
         id="path5668"
         inkscape:connector-curvature="0"
         sodipodi:nodetypes="czzsc" />
      <g
         inkscape:transform-center-y="-109.75805"
         id="g5764"
         transform="matrix(0.30901699,-0.95105651,0.95105651,0.30901699,110.83853,1372.5562)"
         inkscape:transform-center-x="327.34386">
        <path
           sodipodi:nodetypes="zzzczzscz"
           inkscape:connector-curvature="0"
           id="path5766"
           d="m 1105,245 c -30,0 -63.0005,20 -105,20 -41.99953,0 -75,-20 -105,-20 -30,0 -45,20 -5,80 -95,-70 -35,-117 5,-117 40,0 63.00047,17 105,17 41.9995,0 65,-17 105,-17 40,0 100,47 5,117 40,-60 25,-80 -5,-80 z"
           style="fill:#d1d159;fill-opacity:1;stroke:#d1d159;stroke-width:3.20000005;stroke-linecap:butt;stroke-linejoin:miter;stroke-miterlimit:4;stroke-opacity:1;stroke-dasharray:none;filter:url(#filter5728)" />
        <path
           style="fill:none;stroke:#6a5000;stroke-width:10;stroke-linecap:butt;stroke-linejoin:miter;stroke-miterlimit:4;stroke-opacity:1;stroke-dasharray:none"
           d="m 890,325 c -95,-70 -35,-117 5,-117 40,0 63.00047,17 105,17 41.9995,0 65,-17 105,-17 40,0 100,47 5,117"
           id="path5768"
           inkscape:connector-curvature="0"
           sodipodi:nodetypes="czzsc" />
      </g>
      <g
         inkscape:transform-center-x="207.85891"
         transform="matrix(-0.80901699,-0.58778525,0.58778525,-0.80901699,1450.468,1691.2856)"
         id="g5770"
         inkscape:transform-center-y="282.33571">
        <path
           style="fill:#d1d159;fill-opacity:1;stroke:#d1d159;stroke-width:3.20000005;stroke-linecap:butt;stroke-linejoin:miter;stroke-miterlimit:4;stroke-opacity:1;stroke-dasharray:none;filter:url(#filter5728)"
           d="m 1105,245 c -30,0 -63.0005,20 -105,20 -41.99953,0 -75,-20 -105,-20 -30,0 -45,20 -5,80 -95,-70 -35,-117 5,-117 40,0 63.00047,17 105,17 41.9995,0 65,-17 105,-17 40,0 100,47 5,117 40,-60 25,-80 -5,-80 z"
           id="path5772"
           inkscape:connector-curvature="0"
           sodipodi:nodetypes="zzzczzscz" />
        <path
           sodipodi:nodetypes="czzsc"
           inkscape:connector-curvature="0"
           id="path5774"
           d="m 890,325 c -95,-70 -35,-117 5,-117 40,0 63.00047,17 105,17 41.9995,0 65,-17 105,-17 40,0 100,47 5,117"
           style="fill:none;stroke:#6a5000;stroke-width:10;stroke-linecap:butt;stroke-linejoin:miter;stroke-miterlimit:4;stroke-opacity:1;stroke-dasharray:none" />
      </g>
      <g
         inkscape:transform-center-y="127.86584"
         inkscape:transform-center-x="378.20329"
         id="g6183"
         transform="matrix(-0.1795885,0.55271657,-0.55271657,-0.1795885,1516.7022,163.19381)">
        <path
           style="fill:none;stroke:#003100;stroke-width:5;stroke-linecap:butt;stroke-linejoin:miter;stroke-miterlimit:4;stroke-opacity:1;stroke-dasharray:none"
           d="m 1182.5825,358.6967 100.599,-138.46257"
           id="path6185"
           inkscape:connector-curvature="0"
           sodipodi:nodetypes="cc" />
        <path
           inkscape:connector-curvature="0"
           id="path6187"
           d="m 1197.5377,335.15376 c 0.1483,-0.12071 18.8711,-25.82757 41.6069,-57.12589 l 41.334,-56.90829 -38.1706,12.30144 c -20.9943,6.76469 -38.2046,12.3672 -38.2454,12.44983 -0.041,0.0809 0.4522,2.31911 1.0966,4.97339 3.7747,15.5455 4.3575,30.96826 1.8006,47.64174 -1.6274,10.6107 -4.641,22.2839 -8.3948,32.51545 -1.3961,3.80542 -1.5967,4.61343 -1.0303,4.15107 l 0,0 z"
           style="fill:#217200;fill-opacity:1;stroke:none" />
        <path
           style="fill:none;stroke:#003100;stroke-width:5;stroke-linecap:square;stroke-linejoin:miter;stroke-miterlimit:4;stroke-opacity:1;stroke-dasharray:none"
           d="m 1285,305 0,-87 -82.7418,26.88442"
           id="path6189"
           inkscape:connector-curvature="0"
           sodipodi:nodetypes="ccc" />
        <path
           style="fill:#5ab124;fill-opacity:1;stroke:none"
           d="m 1200.001,337.65119 c 0.069,-0.17816 18.732,-25.92861 41.4728,-57.22322 l 41.3466,-56.89928 0.096,40.10383 c 0.054,22.0571 0.044,40.15646 -0.022,40.22082 -0.064,0.0643 -2.3453,0.28658 -5.0689,0.49384 -15.951,1.21389 -30.799,5.42546 -45.8663,13.00976 -9.5884,4.82647 -19.7591,11.29993 -28.3299,18.03169 -3.1878,2.50368 -3.8943,2.94415 -3.6295,2.26256 l 0,0 z"
           id="path6191"
           inkscape:connector-curvature="0" />
      </g>
      <g
         inkscape:transform-center-y="282.33572"
         id="g5776"
         transform="matrix(-0.80901699,0.58778525,-0.58778525,-0.80901699,2167.566,515.71511)"
         inkscape:transform-center-x="-207.85893">
        <path
           sodipodi:nodetypes="zzzczzscz"
           inkscape:connector-curvature="0"
           id="path5778"
           d="m 1105,245 c -30,0 -63.0005,20 -105,20 -41.99953,0 -75,-20 -105,-20 -30,0 -45,20 -5,80 -95,-70 -35,-117 5,-117 40,0 63.00047,17 105,17 41.9995,0 65,-17 105,-17 40,0 100,47 5,117 40,-60 25,-80 -5,-80 z"
           style="fill:#d1d159;fill-opacity:1;stroke:#d1d159;stroke-width:3.20000005;stroke-linecap:butt;stroke-linejoin:miter;stroke-miterlimit:4;stroke-opacity:1;stroke-dasharray:none;filter:url(#filter5728)" />
        <path
           style="fill:none;stroke:#6a5000;stroke-width:10;stroke-linecap:butt;stroke-linejoin:miter;stroke-miterlimit:4;stroke-opacity:1;stroke-dasharray:none"
           d="m 890,325 c -95,-70 -35,-117 5,-117 40,0 63.00047,17 105,17 41.9995,0 65,-17 105,-17 40,0 100,47 5,117"
           id="path5780"
           inkscape:connector-curvature="0"
           sodipodi:nodetypes="czzsc" />
      </g>
      <g
         transform="matrix(0.4701688,0.34159762,-0.34159762,0.4701688,738.16234,-22.039262)"
         id="g6193"
         inkscape:transform-center-x="0.15805084"
         inkscape:transform-center-y="397.64079">
        <path
           sodipodi:nodetypes="cc"
           inkscape:connector-curvature="0"
           id="path6195"
           d="m 1182.5825,358.6967 100.599,-138.46257"
           style="fill:none;stroke:#003100;stroke-width:5;stroke-linecap:butt;stroke-linejoin:miter;stroke-miterlimit:4;stroke-opacity:1;stroke-dasharray:none" />
        <path
           style="fill:#217200;fill-opacity:1;stroke:none"
           d="m 1197.5377,335.15376 c 0.1483,-0.12071 18.8711,-25.82757 41.6069,-57.12589 l 41.334,-56.90829 -38.1706,12.30144 c -20.9943,6.76469 -38.2046,12.3672 -38.2454,12.44983 -0.041,0.0809 0.4522,2.31911 1.0966,4.97339 3.7747,15.5455 4.3575,30.96826 1.8006,47.64174 -1.6274,10.6107 -4.641,22.2839 -8.3948,32.51545 -1.3961,3.80542 -1.5967,4.61343 -1.0303,4.15107 l 0,0 z"
           id="path6197"
           inkscape:connector-curvature="0" />
        <path
           sodipodi:nodetypes="ccc"
           inkscape:connector-curvature="0"
           id="path6199"
           d="m 1285,305 0,-87 -82.7418,26.88442"
           style="fill:none;stroke:#003100;stroke-width:5;stroke-linecap:square;stroke-linejoin:miter;stroke-miterlimit:4;stroke-opacity:1;stroke-dasharray:none" />
        <path
           inkscape:connector-curvature="0"
           id="path6201"
           d="m 1200.001,337.65119 c 0.069,-0.17816 18.732,-25.92861 41.4728,-57.22322 l 41.3466,-56.89928 0.096,40.10383 c 0.054,22.0571 0.044,40.15646 -0.022,40.22082 -0.064,0.0643 -2.3453,0.28658 -5.0689,0.49384 -15.951,1.21389 -30.799,5.42546 -45.8663,13.00976 -9.5884,4.82647 -19.7591,11.29993 -28.3299,18.03169 -3.1878,2.50368 -3.8943,2.94415 -3.6295,2.26256 l 0,0 z"
           style="fill:#5ab124;fill-opacity:1;stroke:none" />
      </g>
      <g
         inkscape:transform-center-x="-327.34387"
         transform="matrix(0.30901699,0.95105651,-0.95105651,0.30901699,1271.1275,-529.55691)"
         id="g5782"
         inkscape:transform-center-y="-109.75814">
        <path
           style="fill:#d1d159;fill-opacity:1;stroke:#d1d159;stroke-width:3.20000005;stroke-linecap:butt;stroke-linejoin:miter;stroke-miterlimit:4;stroke-opacity:1;stroke-dasharray:none;filter:url(#filter5728)"
           d="m 1105,245 c -30,0 -63.0005,20 -105,20 -41.99953,0 -75,-20 -105,-20 -30,0 -45,20 -5,80 -95,-70 -35,-117 5,-117 40,0 63.00047,17 105,17 41.9995,0 65,-17 105,-17 40,0 100,47 5,117 40,-60 25,-80 -5,-80 z"
           id="path5784"
           inkscape:connector-curvature="0"
           sodipodi:nodetypes="zzzczzscz" />
        <path
           sodipodi:nodetypes="czzsc"
           inkscape:connector-curvature="0"
           id="path5786"
           d="m 890,325 c -95,-70 -35,-117 5,-117 40,0 63.00047,17 105,17 41.9995,0 65,-17 105,-17 40,0 100,47 5,117"
           style="fill:none;stroke:#6a5000;stroke-width:10;stroke-linecap:butt;stroke-linejoin:miter;stroke-miterlimit:4;stroke-opacity:1;stroke-dasharray:none" />
      </g>
      <g
         inkscape:transform-center-y="-321.65165"
         inkscape:transform-center-x="-233.79125"
         id="g6123"
         transform="matrix(-0.1795885,-0.55271657,0.55271657,-0.1795885,842.38794,1268.6269)">
        <path
           style="fill:none;stroke:#003100;stroke-width:5;stroke-linecap:butt;stroke-linejoin:miter;stroke-miterlimit:4;stroke-opacity:1;stroke-dasharray:none"
           d="m 1182.5825,358.6967 100.599,-138.46257"
           id="path6125"
           inkscape:connector-curvature="0"
           sodipodi:nodetypes="cc" />
        <path
           inkscape:connector-curvature="0"
           id="path6127"
           d="m 1197.5377,335.15376 c 0.1483,-0.12071 18.8711,-25.82757 41.6069,-57.12589 l 41.334,-56.90829 -38.1706,12.30144 c -20.9943,6.76469 -38.2046,12.3672 -38.2454,12.44983 -0.041,0.0809 0.4522,2.31911 1.0966,4.97339 3.7747,15.5455 4.3575,30.96826 1.8006,47.64174 -1.6274,10.6107 -4.641,22.2839 -8.3948,32.51545 -1.3961,3.80542 -1.5967,4.61343 -1.0303,4.15107 l 0,0 z"
           style="fill:#217200;fill-opacity:1;stroke:none" />
        <path
           style="fill:none;stroke:#003100;stroke-width:5;stroke-linecap:square;stroke-linejoin:miter;stroke-miterlimit:4;stroke-opacity:1;stroke-dasharray:none"
           d="m 1285,305 0,-87 -82.7418,26.88442"
           id="path6129"
           inkscape:connector-curvature="0"
           sodipodi:nodetypes="ccc" />
        <path
           style="fill:#5ab124;fill-opacity:1;stroke:none"
           d="m 1200.001,337.65119 c 0.069,-0.17816 18.732,-25.92861 41.4728,-57.22322 l 41.3466,-56.89928 0.096,40.10383 c 0.054,22.0571 0.044,40.15646 -0.022,40.22082 -0.064,0.0643 -2.3453,0.28658 -5.0689,0.49384 -15.951,1.21389 -30.799,5.42546 -45.8663,13.00976 -9.5884,4.82647 -19.7591,11.29993 -28.3299,18.03169 -3.1878,2.50368 -3.8943,2.94415 -3.6295,2.26256 l 0,0 z"
           id="path6131"
           inkscape:connector-curvature="0" />
      </g>
      <path
         inkscape:transform-center-y="-342.5"
         sodipodi:nodetypes="czc"
         inkscape:connector-curvature="0"
         id="path6135"
         d="M 907.09306,734.30547 C 830.95058,838.48455 762.69808,750.66882 742.94334,689.87 723.18861,629.07117 726.78925,517.90894 849.62474,557.43616"
         style="fill:#ffffff;fill-opacity:1;stroke:#6a5000;stroke-width:5.81160593;stroke-linecap:butt;stroke-linejoin:miter;stroke-miterlimit:4;stroke-opacity:1;stroke-dasharray:none" />
      <path
         inkscape:transform-center-x="308.76435"
         style="fill:#ffffff;fill-opacity:1;stroke:#6a5000;stroke-width:5.81160593;stroke-linecap:butt;stroke-linejoin:miter;stroke-miterlimit:4;stroke-opacity:1;stroke-dasharray:none"
         d="m 1092.9422,734.21667 c 75.5509,104.60891 -29.058,142.38435 -92.98565,142.38435 -63.92767,0 -168.53658,-37.77544 -92.98571,-142.38436"
         id="path6137"
         inkscape:connector-curvature="0"
         sodipodi:nodetypes="czc"
         inkscape:transform-center-y="-102.39031" />
      <path
         inkscape:transform-center-y="258.21602"
         sodipodi:nodetypes="czc"
         inkscape:connector-curvature="0"
         id="path6139"
         d="m 1150.2883,557.43614 c 122.8355,-39.52721 126.4362,71.63502 106.6815,132.43385 -19.7548,60.79882 -88.0073,148.61456 -164.1498,44.43548"
         style="fill:#ffffff;fill-opacity:1;stroke:#6a5000;stroke-width:5.81160593;stroke-linecap:butt;stroke-linejoin:miter;stroke-miterlimit:4;stroke-opacity:1;stroke-dasharray:none"
         inkscape:transform-center-x="190.47535" />
      <path
         inkscape:transform-center-x="-190.47534"
         style="fill:#ffffff;fill-opacity:1;stroke:#6a5000;stroke-width:5.81160593;stroke-linecap:butt;stroke-linejoin:miter;stroke-miterlimit:4;stroke-opacity:1;stroke-dasharray:none"
         d="m 999.881,448.26858 c 0.3656,-129.03805 107.1999,-98.11146 158.9185,-60.5357 51.7185,37.57569 114.145,129.62425 -8.4645,169.84697"
         id="path6141"
         inkscape:connector-curvature="0"
         sodipodi:nodetypes="czc"
         inkscape:transform-center-y="258.21603" />
      <path
         inkscape:transform-center-y="-102.39029"
         sodipodi:nodetypes="czc"
         inkscape:connector-curvature="0"
         id="path6143"
         d="M 849.57804,557.57985 C 726.96856,517.35712 789.39511,425.30859 841.11365,387.73284 892.83219,350.1571 999.66644,319.23048 1000.0321,448.26862"
         style="fill:#ffffff;fill-opacity:1;stroke:#6a5000;stroke-width:5.81160593;stroke-linecap:butt;stroke-linejoin:miter;stroke-miterlimit:4;stroke-opacity:1;stroke-dasharray:none"
         inkscape:transform-center-x="-308.76437" />
      <path
         style="fill:none;stroke:#6a5000;stroke-width:5.8119998;stroke-linecap:butt;stroke-linejoin:miter;stroke-miterlimit:4;stroke-opacity:1;stroke-dasharray:none"
         d="m 999.99991,442 0,110"
         id="path2999"
         inkscape:connector-curvature="0"
         sodipodi:nodetypes="cc"
         inkscape:transform-center-y="-125" />
      <path
         style="fill:#d1d159;fill-opacity:1;stroke:#d1d159;stroke-width:3.20000005;stroke-linecap:butt;stroke-linejoin:miter;stroke-miterlimit:4;stroke-opacity:1;stroke-dasharray:none;filter:url(#filter5728)"
         d="m 1105,245 c -30,0 -63.0005,20 -105,20 -41.99953,0 -75,-20 -105,-20 -30,0 -45,20 -5,80 -95,-70 -35,-117 5,-117 40,0 63.00047,17 105,17 41.9995,0 65,-17 105,-17 40,0 100,47 5,117 40,-60 25,-80 -5,-80 z"
         id="path6145"
         inkscape:connector-curvature="0"
         sodipodi:nodetypes="zzzczzscz"
         transform="matrix(-0.1795885,-0.55271657,0.55271657,-0.1795885,842.38794,1268.6269)" />
      <path
         sodipodi:nodetypes="czzsc"
         inkscape:connector-curvature="0"
         id="path6147"
         d="m 862.18706,718.34289 c -21.62925,65.07927 -58.38224,40.35693 -65.56578,18.24827 -7.18354,-22.10866 -1.91798,-37.87441 -9.46061,-61.08824 -7.54263,-23.21382 -21.06944,-32.87358 -28.25298,-54.98224 -7.18354,-22.10866 8.01883,-63.71231 63.7699,-23.77544"
         style="fill:none;stroke:#6a5000;stroke-width:5.81160593;stroke-linecap:butt;stroke-linejoin:miter;stroke-miterlimit:4;stroke-opacity:1;stroke-dasharray:none" />
      <g
         inkscape:transform-center-x="327.34386"
         transform="matrix(-0.58116059,0,0,-0.58116059,1581.1172,960.8693)"
         id="g6149"
         inkscape:transform-center-y="-109.75805">
        <path
           style="fill:#d1d159;fill-opacity:1;stroke:#d1d159;stroke-width:3.20000005;stroke-linecap:butt;stroke-linejoin:miter;stroke-miterlimit:4;stroke-opacity:1;stroke-dasharray:none;filter:url(#filter5728)"
           d="m 1105,245 c -30,0 -63.0005,20 -105,20 -41.99953,0 -75,-20 -105,-20 -30,0 -45,20 -5,80 -95,-70 -35,-117 5,-117 40,0 63.00047,17 105,17 41.9995,0 65,-17 105,-17 40,0 100,47 5,117 40,-60 25,-80 -5,-80 z"
           id="path6151"
           inkscape:connector-curvature="0"
           sodipodi:nodetypes="zzzczzscz" />
        <path
           sodipodi:nodetypes="czzsc"
           inkscape:connector-curvature="0"
           id="path6153"
           d="m 890,325 c -95,-70 -35,-117 5,-117 40,0 63.00047,17 105,17 41.9995,0 65,-17 105,-17 40,0 100,47 5,117"
           style="fill:none;stroke:#6a5000;stroke-width:10;stroke-linecap:butt;stroke-linejoin:miter;stroke-miterlimit:4;stroke-opacity:1;stroke-dasharray:none" />
      </g>
      <g
         inkscape:transform-center-y="282.33571"
         id="g6155"
         transform="matrix(-0.1795885,0.55271657,-0.55271657,-0.1795885,1516.7021,163.19376)"
         inkscape:transform-center-x="207.85891">
        <path
           sodipodi:nodetypes="zzzczzscz"
           inkscape:connector-curvature="0"
           id="path6157"
           d="m 1105,245 c -30,0 -63.0005,20 -105,20 -41.99953,0 -75,-20 -105,-20 -30,0 -45,20 -5,80 -95,-70 -35,-117 5,-117 40,0 63.00047,17 105,17 41.9995,0 65,-17 105,-17 40,0 100,47 5,117 40,-60 25,-80 -5,-80 z"
           style="fill:#d1d159;fill-opacity:1;stroke:#d1d159;stroke-width:3.20000005;stroke-linecap:butt;stroke-linejoin:miter;stroke-miterlimit:4;stroke-opacity:1;stroke-dasharray:none;filter:url(#filter5728)" />
        <path
           style="fill:none;stroke:#6a5000;stroke-width:10;stroke-linecap:butt;stroke-linejoin:miter;stroke-miterlimit:4;stroke-opacity:1;stroke-dasharray:none"
           d="m 890,325 c -95,-70 -35,-117 5,-117 40,0 63.00047,17 105,17 41.9995,0 65,-17 105,-17 40,0 100,47 5,117"
           id="path6159"
           inkscape:connector-curvature="0"
           sodipodi:nodetypes="czzsc" />
      </g>
      <g
         inkscape:transform-center-x="-207.85893"
         transform="matrix(0.47016879,0.34159762,-0.34159762,0.47016879,738.1623,-22.039248)"
         id="g6161"
         inkscape:transform-center-y="282.33572">
        <path
           style="fill:#d1d159;fill-opacity:1;stroke:#d1d159;stroke-width:3.20000005;stroke-linecap:butt;stroke-linejoin:miter;stroke-miterlimit:4;stroke-opacity:1;stroke-dasharray:none;filter:url(#filter5728)"
           d="m 1105,245 c -30,0 -63.0005,20 -105,20 -41.99953,0 -75,-20 -105,-20 -30,0 -45,20 -5,80 -95,-70 -35,-117 5,-117 40,0 63.00047,17 105,17 41.9995,0 65,-17 105,-17 40,0 100,47 5,117 40,-60 25,-80 -5,-80 z"
           id="path6163"
           inkscape:connector-curvature="0"
           sodipodi:nodetypes="zzzczzscz" />
        <path
           sodipodi:nodetypes="czzsc"
           inkscape:connector-curvature="0"
           id="path6165"
           d="m 890,325 c -95,-70 -35,-117 5,-117 40,0 63.00047,17 105,17 41.9995,0 65,-17 105,-17 40,0 100,47 5,117"
           style="fill:none;stroke:#6a5000;stroke-width:10;stroke-linecap:butt;stroke-linejoin:miter;stroke-miterlimit:4;stroke-opacity:1;stroke-dasharray:none" />
      </g>
      <g
         inkscape:transform-center-y="-109.75814"
         id="g6167"
         transform="matrix(0.47016879,-0.34159762,0.34159762,0.47016879,321.41318,661.156)"
         inkscape:transform-center-x="-327.34387">
        <path
           sodipodi:nodetypes="zzzczzscz"
           inkscape:connector-curvature="0"
           id="path6169"
           d="m 1105,245 c -30,0 -63.0005,20 -105,20 -41.99953,0 -75,-20 -105,-20 -30,0 -45,20 -5,80 -95,-70 -35,-117 5,-117 40,0 63.00047,17 105,17 41.9995,0 65,-17 105,-17 40,0 100,47 5,117 40,-60 25,-80 -5,-80 z"
           style="fill:#d1d159;fill-opacity:1;stroke:#d1d159;stroke-width:3.20000005;stroke-linecap:butt;stroke-linejoin:miter;stroke-miterlimit:4;stroke-opacity:1;stroke-dasharray:none;filter:url(#filter5728)" />
        <path
           style="fill:none;stroke:#6a5000;stroke-width:10;stroke-linecap:butt;stroke-linejoin:miter;stroke-miterlimit:4;stroke-opacity:1;stroke-dasharray:none"
           d="m 890,325 c -95,-70 -35,-117 5,-117 40,0 63.00047,17 105,17 41.9995,0 65,-17 105,-17 40,0 100,47 5,117"
           id="path6171"
           inkscape:connector-curvature="0"
           sodipodi:nodetypes="czzsc" />
      </g>
      <path
         inkscape:transform-center-y="-38.627125"
         sodipodi:nodetypes="cc"
         inkscape:connector-curvature="0"
         id="path6310"
         d="m 835.17391,552.9627 104.61621,33.99187"
         style="fill:none;stroke:#6a5000;stroke-width:5.8119998;stroke-linecap:butt;stroke-linejoin:miter;stroke-miterlimit:4;stroke-opacity:1;stroke-dasharray:none"
         inkscape:transform-center-x="118.88206" />
      <path
         inkscape:transform-center-x="73.473155"
         style="fill:none;stroke:#6a5000;stroke-width:5.8119998;stroke-linecap:butt;stroke-linejoin:miter;stroke-miterlimit:4;stroke-opacity:1;stroke-dasharray:none"
         d="m 898.72899,745.62305 64.65638,-88.99186"
         id="path6312"
         inkscape:connector-curvature="0"
         sodipodi:nodetypes="cc"
         inkscape:transform-center-y="101.12712" />
      <path
         inkscape:transform-center-y="101.12712"
         sodipodi:nodetypes="cc"
         inkscape:connector-curvature="0"
         id="path6314"
         d="m 1099.6245,743.62306 -64.6563,-88.99187"
         style="fill:none;stroke:#6a5000;stroke-width:5.8119998;stroke-linecap:butt;stroke-linejoin:miter;stroke-miterlimit:4;stroke-opacity:1;stroke-dasharray:none"
         inkscape:transform-center-x="-73.473155" />
      <path
         inkscape:transform-center-x="-118.8821"
         style="fill:none;stroke:#6a5000;stroke-width:5.8119998;stroke-linecap:butt;stroke-linejoin:miter;stroke-miterlimit:4;stroke-opacity:1;stroke-dasharray:none"
         d="m 1158.041,555.0841 -104.6162,33.9918"
         id="path6316"
         inkscape:connector-curvature="0"
         sodipodi:nodetypes="cc"
         inkscape:transform-center-y="-38.627125" />
      <path
         style="fill:none;stroke:#6a5000;stroke-width:5.8119998;stroke-linecap:butt;stroke-linejoin:miter;stroke-miterlimit:4;stroke-opacity:1;stroke-dasharray:none"
         d="m 1000,734 0,-54"
         id="path6318"
         inkscape:connector-curvature="0" />
      <path
         inkscape:connector-curvature="0"
         id="path6320"
         d="m 1117.931,648.31811 -51.357,-16.68692"
         style="fill:none;stroke:#6a5000;stroke-width:5.8119998;stroke-linecap:butt;stroke-linejoin:miter;stroke-miterlimit:4;stroke-opacity:1;stroke-dasharray:none"
         inkscape:transform-center-y="29.97465"
         inkscape:transform-center-x="-92.2525" />
      <path
         inkscape:transform-center-x="-57.0152"
         inkscape:transform-center-y="-78.474665"
         style="fill:none;stroke:#6a5000;stroke-width:5.8119998;stroke-linecap:butt;stroke-linejoin:miter;stroke-miterlimit:4;stroke-opacity:1;stroke-dasharray:none"
         d="m 1072.8854,509.6819 -31.7404,43.68687"
         id="path6322"
         inkscape:connector-curvature="0" />
      <path
         inkscape:connector-curvature="0"
         id="path6324"
         d="m 927.11464,509.68187 31.74036,43.6869"
         style="fill:none;stroke:#6a5000;stroke-width:5.8119998;stroke-linecap:butt;stroke-linejoin:miter;stroke-miterlimit:4;stroke-opacity:1;stroke-dasharray:none"
         inkscape:transform-center-y="-78.47468"
         inkscape:transform-center-x="57.01518" />
      <path
         inkscape:transform-center-x="92.252515"
         inkscape:transform-center-y="29.97465"
         style="fill:none;stroke:#6a5000;stroke-width:5.8119998;stroke-linecap:butt;stroke-linejoin:miter;stroke-miterlimit:4;stroke-opacity:1;stroke-dasharray:none"
         d="M 882.06897,648.31809 933.426,631.63121"
         id="path6326"
         inkscape:connector-curvature="0" />
      <path
         sodipodi:type="arc"
         style="fill:#fbeb0f;fill-opacity:1;stroke:#6a5000;stroke-width:4.79623461;stroke-miterlimit:4;stroke-opacity:1;stroke-dasharray:none"
         id="path3933"
         sodipodi:cx="992.5"
         sodipodi:cy="600"
         sodipodi:rx="77.5"
         sodipodi:ry="75"
         d="m 1070,600 c 0,41.42136 -34.6979,75 -77.5,75 -42.80207,0 -77.5,-33.57864 -77.5,-75 0,-41.42136 34.69793,-75 77.5,-75 42.8021,0 77.5,33.57864 77.5,74.99999"
         sodipodi:start="0"
         sodipodi:end="6.2831852"
         sodipodi:open="true"
         transform="matrix(1.0255324,0,0,1.0597168,-17.840904,-25.830082)" />
      <path
         style="fill:none;stroke:#6a5000;stroke-width:2;stroke-linecap:butt;stroke-linejoin:miter;stroke-miterlimit:4;stroke-opacity:1;stroke-dasharray:none"
         d="m 925.75379,634.74874 49.49747,49.49747"
         id="path6456"
         inkscape:connector-curvature="0" />
      <path
         style="fill:none;stroke:#6a5000;stroke-width:2;stroke-linecap:butt;stroke-linejoin:miter;stroke-miterlimit:4;stroke-opacity:1;stroke-dasharray:none"
         d="m 1024.7487,535.75379 49.4975,49.49747"
         id="path6458"
         inkscape:connector-curvature="0" />
      <path
         style="fill:none;stroke:#6a5000;stroke-width:2;stroke-linecap:butt;stroke-linejoin:miter;stroke-miterlimit:4;stroke-opacity:1;stroke-dasharray:none"
         d="m 992.92893,532.21825 84.85277,84.85282"
         id="path6460"
         inkscape:connector-curvature="0" />
      <path
         style="fill:none;stroke:#6a5000;stroke-width:2;stroke-linecap:butt;stroke-linejoin:miter;stroke-miterlimit:4;stroke-opacity:1;stroke-dasharray:none"
         d="M 968.18019,535.75379 1074.2462,641.81981"
         id="path6462"
         inkscape:connector-curvature="0" />
      <path
         style="fill:none;stroke:#6a5000;stroke-width:2;stroke-linecap:butt;stroke-linejoin:miter;stroke-miterlimit:4;stroke-opacity:1;stroke-dasharray:none"
         d="m 922.21825,602.92893 84.85285,84.85282"
         id="path6464"
         inkscape:connector-curvature="0" />
      <path
         style="fill:none;stroke:#6a5000;stroke-width:2;stroke-linecap:butt;stroke-linejoin:miter;stroke-miterlimit:4;stroke-opacity:1;stroke-dasharray:none"
         d="M 925.75379,578.18019 1031.8198,684.24621"
         id="path6466"
         inkscape:connector-curvature="0" />
      <path
         style="fill:none;stroke:#6a5000;stroke-width:2;stroke-linecap:butt;stroke-linejoin:miter;stroke-miterlimit:4;stroke-opacity:1;stroke-dasharray:none"
         d="M 936.36039,560.50253 1049.4975,673.63961"
         id="path6468"
         inkscape:connector-curvature="0" />
      <path
         style="fill:none;stroke:#6a5000;stroke-width:2;stroke-linecap:butt;stroke-linejoin:miter;stroke-miterlimit:4;stroke-opacity:1;stroke-dasharray:none"
         d="M 1063.6396,659.49747 950.50253,546.36039"
         id="path6470"
         inkscape:connector-curvature="0" />
      <path
         inkscape:connector-curvature="0"
         id="path6472"
         d="m 1024.7487,684.24619 49.4975,-49.49747"
         style="fill:none;stroke:#6a5000;stroke-width:2;stroke-linecap:butt;stroke-linejoin:miter;stroke-miterlimit:4;stroke-opacity:1;stroke-dasharray:none" />
      <path
         inkscape:connector-curvature="0"
         id="path6474"
         d="m 925.75378,585.25129 49.49749,-49.49751"
         style="fill:none;stroke:#6a5000;stroke-width:2;stroke-linecap:butt;stroke-linejoin:miter;stroke-miterlimit:4;stroke-opacity:1;stroke-dasharray:none" />
      <path
         inkscape:connector-curvature="0"
         id="path6476"
         d="m 922.21824,617.07106 84.85286,-84.8528"
         style="fill:none;stroke:#6a5000;stroke-width:2;stroke-linecap:butt;stroke-linejoin:miter;stroke-miterlimit:4;stroke-opacity:1;stroke-dasharray:none" />
      <path
         inkscape:connector-curvature="0"
         id="path6478"
         d="M 925.75378,641.8198 1031.8198,535.75378"
         style="fill:none;stroke:#6a5000;stroke-width:2;stroke-linecap:butt;stroke-linejoin:miter;stroke-miterlimit:4;stroke-opacity:1;stroke-dasharray:none" />
      <path
         inkscape:connector-curvature="0"
         id="path6480"
         d="M 992.92892,687.78173 1077.7817,602.9289"
         style="fill:none;stroke:#6a5000;stroke-width:2;stroke-linecap:butt;stroke-linejoin:miter;stroke-miterlimit:4;stroke-opacity:1;stroke-dasharray:none" />
      <path
         inkscape:connector-curvature="0"
         id="path6482"
         d="M 968.18018,684.2462 1074.2462,578.18018"
         style="fill:none;stroke:#6a5000;stroke-width:2;stroke-linecap:butt;stroke-linejoin:miter;stroke-miterlimit:4;stroke-opacity:1;stroke-dasharray:none" />
      <path
         inkscape:connector-curvature="0"
         id="path6484"
         d="M 950.50253,673.6396 1063.6396,560.50249"
         style="fill:none;stroke:#6a5000;stroke-width:2;stroke-linecap:butt;stroke-linejoin:miter;stroke-miterlimit:4;stroke-opacity:1;stroke-dasharray:none" />
      <path
         inkscape:connector-curvature="0"
         id="path6486"
         d="M 1049.4975,546.36038 936.36039,659.49746"
         style="fill:none;stroke:#6a5000;stroke-width:2;stroke-linecap:butt;stroke-linejoin:miter;stroke-miterlimit:4;stroke-opacity:1;stroke-dasharray:none" />
    </g>
  </g>
</svg>
